Dinish-Regular.ufo
<glyph name="three" format="2">
  <advance width="506"/>
  <unicode hex="0033"/>
  <outline>
    <contour>
      <point x="62.01" y="175" type="line"/>
      <point x="62.01" y="170.972" type="line" smooth="yes"/>
      <point x="62.01" y="54.531"/>
      <point x="128.33" y="-10"/>
      <point x="248" y="-10" type="curve" smooth="yes"/>
      <point x="364.839" y="-10"/>
      <point x="438.924" y="64.891"/>
      <point x="438.924" y="183" type="curve" smooth="yes"/>
      <point x="438.924" y="196.512" type="line" smooth="yes"/>
      <point x="438.924" y="291.145"/>
      <point x="405.75" y="349.485"/>
      <point x="338" y="374" type="curve"/>
      <point x="397.691" y="400.552"/>
      <point x="426.971" y="453.532"/>
      <point x="426.971" y="534.984" type="curve" smooth="yes"/>
      <point x="426.971" y="542" type="line" smooth="yes"/>
      <point x="426.971" y="648.651"/>
      <point x="357.462" y="717"/>
      <point x="249" y="717" type="curve" smooth="yes"/>
      <point x="138.45" y="717"/>
      <point x="71" y="652.581"/>
      <point x="71" y="547" type="curve" smooth="yes"/>
      <point x="71" y="528" type="line"/>
      <point x="142.023" y="528" type="line"/>
      <point x="142.023" y="534.372" type="line" smooth="yes"/>
      <point x="142.023" y="611.058"/>
      <point x="177.378" y="650"/>
      <point x="247" y="650" type="curve" smooth="yes"/>
      <point x="311.724" y="650"/>
      <point x="352.901" y="609.695"/>
      <point x="352.901" y="546.342" type="curve" smooth="yes"/>
      <point x="352.901" y="538" type="line" smooth="yes"/>
      <point x="352.901" y="445.928"/>
      <point x="316.324" y="400"/>
      <point x="243" y="400" type="curve" smooth="yes"/>
      <point x="207" y="400" type="line"/>
      <point x="207" y="333" type="line"/>
      <point x="244" y="333" type="line" smooth="yes"/>
      <point x="317.118" y="333"/>
      <point x="364.945" y="282.778"/>
      <point x="364.945" y="206" type="curve" smooth="yes"/>
      <point x="364.945" y="196.091" type="line" smooth="yes"/>
      <point x="364.945" y="102.825"/>
      <point x="326.191" y="56"/>
      <point x="249" y="56" type="curve" smooth="yes"/>
      <point x="175.376" y="56"/>
      <point x="137.015" y="95.111"/>
      <point x="137.015" y="170.175" type="curve" smooth="yes"/>
      <point x="137.015" y="175" type="line"/>
    </contour>
  </outline>
</glyph>
<glyph name="five" format="2">
  <advance width="495"/>
  <unicode hex="0035"/>
  <outline>
    <contour>
      <point x="68.027" y="167" type="line"/>
      <point x="68.027" y="160.752" type="line" smooth="yes"/>
      <point x="68.027" y="49.878"/>
      <point x="130.788" y="-10"/>
      <point x="247" y="-10" type="curve" smooth="yes"/>
      <point x="360.798" y="-10"/>
      <point x="428" y="62.028"/>
      <point x="428" y="184" type="curve" smooth="yes"/>
      <point x="428" y="261" type="line" smooth="yes"/>
      <point x="428" y="390.068"/>
      <point x="368.468" y="459"/>
      <point x="257" y="459" type="curve" smooth="yes"/>
      <point x="214.599" y="459"/>
      <point x="171.208" y="440.855"/>
      <point x="147" y="413" type="curve"/>
      <point x="147" y="638" type="line"/>
      <point x="417" y="638" type="line"/>
      <point x="417" y="707" type="line"/>
      <point x="79" y="707" type="line"/>
      <point x="79" y="319" type="line"/>
      <point x="144" y="319" type="line"/>
      <point x="159.876" y="365.121"/>
      <point x="196.897" y="391"/>
      <point x="247" y="391" type="curve" smooth="yes"/>
      <point x="327.947" y="391"/>
      <point x="353.284" y="352.117"/>
      <point x="353.284" y="227.893" type="curve" smooth="yes"/>
      <point x="353.284" y="212.15" type="line" smooth="yes"/>
      <point x="353.284" y="102.469"/>
      <point x="321.842" y="57"/>
      <point x="246" y="57" type="curve" smooth="yes"/>
      <point x="176.814" y="57"/>
      <point x="139.042" y="93.536"/>
      <point x="139.042" y="160.458" type="curve" smooth="yes"/>
      <point x="139.042" y="167" type="line"/>
    </contour>
  </outline>
</glyph>
<glyph name="seven" format="2">
  <advance width="441"/>
  <unicode hex="0037"/>
  <outline>
    <contour>
      <point x="95" y="0" type="line"/>
      <point x="170" y="0" type="line"/>
      <point x="400" y="639" type="line"/>
      <point x="400.324" y="639.899"/>
      <point x="400" y="699.706"/>
      <point x="400" y="707" type="curve"/>
      <point x="41" y="707" type="line"/>
      <point x="41" y="639" type="line"/>
      <point x="329" y="639" type="line"/>
    </contour>
  </outline>
</glyph>
<glyph name="eight" format="2">
  <advance width="524"/>
  <unicode hex="0038"/>
  <outline>
    <contour>
      <point x="166" y="373" type="curve"/>
      <point x="106.553" y="346.098"/>
      <point x="68.455" y="282.043"/>
      <point x="68.455" y="209" type="curve" smooth="yes"/>
      <point x="68.455" y="181.545" type="line" smooth="yes"/>
      <point x="68.455" y="61.739"/>
      <point x="140.568" y="-10"/>
      <point x="261" y="-10" type="curve" smooth="yes"/>
      <point x="376.667" y="-10"/>
      <point x="456.659" y="69.313"/>
      <point x="456.659" y="184" type="curve" smooth="yes"/>
      <point x="456.659" y="208.87" type="line" smooth="yes"/>
      <point x="456.659" y="286.249"/>
      <point x="423.386" y="341.602"/>
      <point x="358" y="373" type="curve"/>
      <point x="410.986" y="399.463"/>
      <point x="442.714" y="453.771"/>
      <point x="442.714" y="518" type="curve" smooth="yes"/>
      <point x="442.714" y="537.421" type="line" smooth="yes"/>
      <point x="442.714" y="647.544"/>
      <point x="372.819" y="717"/>
      <point x="262" y="717" type="curve" smooth="yes"/>
      <point x="158.052" y="717"/>
      <point x="82.149" y="641.879"/>
      <point x="82.149" y="539" type="curve" smooth="yes"/>
      <point x="82.149" y="522.366" type="line" smooth="yes"/>
      <point x="82.149" y="449.432"/>
      <point x="109.324" y="401.024"/>
    </contour>
    <contour>
      <point x="157.375" y="522.354" type="curve" smooth="yes"/>
      <point x="157.375" y="539.472" type="line" smooth="yes"/>
      <point x="157.375" y="609.101"/>
      <point x="196.089" y="650"/>
      <point x="262" y="650" type="curve" smooth="yes"/>
      <point x="323.769" y="650"/>
      <point x="368.853" y="603.365"/>
      <point x="368.853" y="539.472" type="curve" smooth="yes"/>
      <point x="368.853" y="522.354" type="line" smooth="yes"/>
      <point x="368.853" y="447.107"/>
      <point x="329.935" y="404"/>
      <point x="262" y="404" type="curve" smooth="yes"/>
      <point x="199.957" y="404"/>
      <point x="157.375" y="452.17"/>
    </contour>
    <contour>
      <point x="142.428" y="189.806" type="curve" smooth="yes"/>
      <point x="142.428" y="209.469" type="line" smooth="yes"/>
      <point x="142.428" y="291.498"/>
      <point x="185.689" y="338"/>
      <point x="262" y="338" type="curve" smooth="yes"/>
      <point x="334.55" y="338"/>
      <point x="381.863" y="287.265"/>
      <point x="381.863" y="209.469" type="curve" smooth="yes"/>
      <point x="381.863" y="189.806" type="line" smooth="yes"/>
      <point x="381.863" y="103.285"/>
      <point x="339.505" y="56"/>
      <point x="262" y="56" type="curve" smooth="yes"/>
      <point x="192.077" y="56"/>
      <point x="142.428" y="111.56"/>
    </contour>
  </outline>
</glyph>
<glyph name="at" format="2">
  <advance width="892"/>
  <unicode hex="0040"/>
  <outline>
    <contour>
      <point x="667" y="-12" type="line"/>
      <point x="599.891" y="-48.583"/>
      <point x="531.437" y="-65"/>
      <point x="446" y="-65" type="curve" smooth="yes"/>
      <point x="256.739" y="-65"/>
      <point x="133" y="61.111"/>
      <point x="133" y="254" type="curve" smooth="yes"/>
      <point x="133" y="327" type="line" smooth="yes"/>
      <point x="133" y="518.107"/>
      <point x="255.502" y="641"/>
      <point x="446" y="641" type="curve" smooth="yes"/>
      <point x="638.022" y="641"/>
      <point x="760.54" y="518.303"/>
      <point x="760.54" y="326" type="curve" smooth="yes"/>
      <point x="760.54" y="265.097" type="line" smooth="yes"/>
      <point x="760.54" y="165.121"/>
      <point x="733.676" y="116"/>
      <point x="679" y="116" type="curve" smooth="yes"/>
      <point x="633.728" y="116"/>
      <point x="607" y="149.038"/>
      <point x="607" y="205" type="curve" smooth="yes"/>
      <point x="607" y="501" type="line"/>
      <point x="541" y="501" type="line"/>
      <point x="541" y="455" type="line"/>
      <point x="519.565" y="490.138"/>
      <point x="476.724" y="511"/>
      <point x="426" y="511" type="curve" smooth="yes"/>
      <point x="327.811" y="511"/>
      <point x="274.94" y="445.899"/>
      <point x="274.94" y="325" type="curve" smooth="yes"/>
      <point x="274.94" y="285.166" type="line" smooth="yes"/>
      <point x="274.94" y="121.981"/>
      <point x="318.531" y="57"/>
      <point x="428" y="57" type="curve" smooth="yes"/>
      <point x="491.406" y="57"/>
      <point x="539.848" y="83.994"/>
      <point x="559" y="130" type="curve"/>
      <point x="579.341" y="83.218"/>
      <point x="622.079" y="57"/>
      <point x="678" y="57" type="curve" smooth="yes"/>
      <point x="774.275" y="57"/>
      <point x="833" y="133.153"/>
      <point x="833" y="258" type="curve" smooth="yes"/>
      <point x="833" y="327" type="line" smooth="yes"/>
      <point x="833" y="549.1"/>
      <point x="672.191" y="707"/>
      <point x="446" y="707" type="curve" smooth="yes"/>
      <point x="219.622" y="707"/>
      <point x="60" y="549.033"/>
      <point x="60" y="325" type="curve" smooth="yes"/>
      <point x="60" y="255" type="line" smooth="yes"/>
      <point x="60" y="27.005"/>
      <point x="218.005" y="-131"/>
      <point x="446" y="-131" type="curve" smooth="yes"/>
      <point x="545.102" y="-131"/>
      <point x="615.812" y="-113.683"/>
      <point x="691" y="-71" type="curve"/>
    </contour>
    <contour>
      <point x="442" y="117" type="curve" smooth="yes"/>
      <point x="378.74" y="117"/>
      <point x="346" y="161.677"/>
      <point x="346" y="248" type="curve" smooth="yes"/>
      <point x="346" y="324" type="line" smooth="yes"/>
      <point x="346" y="408.033"/>
      <point x="378.975" y="452"/>
      <point x="442" y="452" type="curve" smooth="yes"/>
      <point x="504.635" y="452"/>
      <point x="538" y="408.556"/>
      <point x="538" y="327" type="curve" smooth="yes"/>
      <point x="538" y="243" type="line" smooth="yes"/>
      <point x="538" y="160.669"/>
      <point x="504.728" y="117"/>
    </contour>
  </outline>
</glyph>
<glyph name="G" format="2">
  <advance width="620"/>
  <unicode hex="0047"/>
  <anchor x="313" y="773" name="top"/>
  <anchor x="313" y="-86" name="bottom"/>
  <outline>
    <contour>
      <point x="313" y="299" type="line"/>
      <point x="482" y="299" type="line"/>
      <point x="482.019" y="289.383" type="line"/>
      <point x="482.019" y="163.503"/>
      <point x="469.452" y="60"/>
      <point x="316" y="60" type="curve" smooth="yes"/>
      <point x="189.117" y="60"/>
      <point x="142" y="140.69"/>
      <point x="142" y="258" type="curve" smooth="yes"/>
      <point x="142" y="442" type="line" smooth="yes"/>
      <point x="142" y="561.736"/>
      <point x="181.826" y="648"/>
      <point x="315" y="648" type="curve" smooth="yes"/>
      <point x="407.088" y="648"/>
      <point x="479.953" y="600.727"/>
      <point x="479.953" y="504.3" type="curve" smooth="yes"/>
      <point x="479.953" y="498" type="line"/>
      <point x="554.972" y="498" type="line"/>
      <point x="554.972" y="505.278" type="line" smooth="yes"/>
      <point x="554.972" y="641.989"/>
      <point x="444.654" y="716"/>
      <point x="314" y="716" type="curve" smooth="yes"/>
      <point x="142.295" y="716"/>
      <point x="68" y="607.017"/>
      <point x="68" y="445" type="curve" smooth="yes"/>
      <point x="68" y="262" type="line" smooth="yes"/>
      <point x="68" y="100.279"/>
      <point x="142.991" y="-8"/>
      <point x="314" y="-8" type="curve" smooth="yes"/>
      <point x="485.319" y="-8"/>
      <point x="557" y="95.814"/>
      <point x="557" y="258" type="curve" smooth="yes"/>
      <point x="557" y="364" type="line"/>
      <point x="313" y="364" type="line"/>
    </contour>
  </outline>
</glyph>
<glyph name="J" format="2">
  <advance width="320"/>
  <unicode hex="004A"/>
  <anchor x="193" y="773" name="top"/>
  <anchor x="236" y="-86" name="bottom"/>
  <outline>
    <contour>
      <point x="33" y="0" type="line"/>
      <point x="102" y="0" type="line" smooth="yes"/>
      <point x="190.139" y="0"/>
      <point x="230" y="51.054"/>
      <point x="230" y="136" type="curve" smooth="yes"/>
      <point x="230" y="707" type="line"/>
      <point x="156" y="707" type="line"/>
      <point x="156" y="145" type="line" smooth="yes"/>
      <point x="156" y="74.766"/>
      <point x="124.715" y="68.22"/>
      <point x="75.971" y="68.22" type="curve" smooth="yes"/>
      <point x="33" y="68.22" type="line"/>
    </contour>
  </outline>
</glyph>
<glyph name="L" format="2">
  <advance width="541"/>
  <unicode hex="004C"/>
  <anchor x="119" y="773" name="top"/>
  <anchor x="295" y="-86" name="bottom"/>
  <anchor x="419" y="397" name="dot"/>
  <outline>
    <contour>
      <point x="82" y="0" type="line"/>
      <point x="509" y="0" type="line"/>
      <point x="509" y="68" type="line"/>
      <point x="157" y="68" type="line"/>
      <point x="157" y="707" type="line"/>
      <point x="82" y="707" type="line"/>
    </contour>
  </outline>
</glyph>
<glyph name="O" format="2">
  <advance width="624"/>
  <unicode hex="004F"/>
  <anchor x="309" y="773" name="top"/>
  <anchor x="309" y="-86" name="bottom"/>
  <anchor x="263" y="0" name="b.cedilla"/>
  <outline>
    <contour>
      <point x="312" y="-8" type="curve" smooth="yes"/>
      <point x="468.984" y="-8"/>
      <point x="557" y="88.997"/>
      <point x="557" y="262" type="curve" smooth="yes"/>
      <point x="557" y="445" type="line" smooth="yes"/>
      <point x="557" y="619.805"/>
      <point x="470.389" y="716"/>
      <point x="313" y="716" type="curve" smooth="yes"/>
      <point x="154.698" y="716"/>
      <point x="68" y="620.101"/>
      <point x="68" y="445" type="curve" smooth="yes"/>
      <point x="68" y="262" type="line" smooth="yes"/>
      <point x="68" y="87.956"/>
      <point x="154.716" y="-8"/>
    </contour>
    <contour>
      <point x="313" y="60" type="curve" smooth="yes"/>
      <point x="200.789" y="60"/>
      <point x="142" y="128.072"/>
      <point x="142" y="258" type="curve" smooth="yes"/>
      <point x="142" y="442" type="line" smooth="yes"/>
      <point x="142" y="580.22"/>
      <point x="196.89" y="648"/>
      <point x="308.823" y="648" type="curve" smooth="yes"/>
      <point x="422.287" y="648"/>
      <point x="482" y="576.97"/>
      <point x="482" y="442" type="curve" smooth="yes"/>
      <point x="482" y="258" type="line" smooth="yes"/>
      <point x="482" y="128.055"/>
      <point x="423.913" y="60"/>
    </contour>
  </outline>
</glyph>
<glyph name="P" format="2">
  <advance width="590"/>
  <unicode hex="0050"/>
  <anchor x="306" y="773" name="top"/>
  <anchor x="236" y="-86" name="bottom"/>
  <outline>
    <contour>
      <point x="82" y="0" type="line"/>
      <point x="157" y="0" type="line"/>
      <point x="157" y="292" type="line"/>
      <point x="336" y="292" type="line" smooth="yes"/>
      <point x="473.461" y="292"/>
      <point x="558" y="369.685"/>
      <point x="558" y="496" type="curve" smooth="yes"/>
      <point x="558" y="634.902"/>
      <point x="470.775" y="707"/>
      <point x="336" y="707" type="curve" smooth="yes"/>
      <point x="82" y="707" type="line"/>
    </contour>
    <contour>
      <point x="157" y="359" type="line"/>
      <point x="157" y="639" type="line"/>
      <point x="330" y="639" type="line" smooth="yes"/>
      <point x="425.048" y="639"/>
      <point x="483" y="595.016"/>
      <point x="483" y="496" type="curve" smooth="yes"/>
      <point x="483" y="398.758"/>
      <point x="420.995" y="359"/>
      <point x="330" y="359" type="curve" smooth="yes"/>
    </contour>
  </outline>
</glyph>
<glyph name="T" format="2">
  <advance width="493"/>
  <unicode hex="0054"/>
  <anchor x="246" y="-86" name="bottom"/>
  <anchor x="246" y="773" name="top"/>
  <anchor x="218" y="0" name="b.cedilla"/>
  <outline>
    <contour>
      <point x="210" y="0" type="line"/>
      <point x="284" y="0" type="line"/>
      <point x="284" y="639" type="line"/>
      <point x="485" y="639" type="line"/>
      <point x="485" y="707" type="line"/>
      <point x="8" y="707" type="line"/>
      <point x="8" y="639" type="line"/>
      <point x="210" y="639" type="line"/>
    </contour>
  </outline>
</glyph>
<glyph name="bracketleft" format="2">
  <advance width="302"/>
  <unicode hex="005B"/>
  <outline>
    <contour>
      <point x="82" y="-86" type="line"/>
      <point x="242" y="-86" type="line"/>
      <point x="242" y="-18" type="line"/>
      <point x="154" y="-18" type="line"/>
      <point x="154" y="690" type="line"/>
      <point x="242" y="690" type="line"/>
      <point x="242" y="758" type="line"/>
      <point x="82" y="758" type="line"/>
    </contour>
  </outline>
</glyph>
<glyph name="b" format="2">
  <advance width="522"/>
  <unicode hex="0062"/>
  <anchor x="287" y="586" name="top"/>
  <anchor x="287" y="-86" name="bottom"/>
  <outline>
    <contour>
      <point x="77" y="0" type="line"/>
      <point x="146" y="0" type="line"/>
      <point x="146" y="69.032" type="line"/>
      <point x="176.411" y="16.332"/>
      <point x="227.962" y="-6"/>
      <point x="287.28" y="-6" type="curve" smooth="yes"/>
      <point x="414.021" y="-6"/>
      <point x="462" y="93.767"/>
      <point x="462" y="207.371" type="curve" smooth="yes"/>
      <point x="462" y="313.631" type="line" smooth="yes"/>
      <point x="462" y="428.045"/>
      <point x="415.284" y="526"/>
      <point x="287.785" y="526" type="curve" smooth="yes"/>
      <point x="225.827" y="526"/>
      <point x="176.12" y="502.638"/>
      <point x="146" y="446.958" type="curve"/>
      <point x="146" y="707" type="line"/>
      <point x="77" y="707" type="line"/>
    </contour>
    <contour>
      <point x="276.892" y="56" type="curve" smooth="yes"/>
      <point x="186.685" y="56"/>
      <point x="146" y="130.58"/>
      <point x="146" y="212.383" type="curve" smooth="yes"/>
      <point x="146" y="303.607" type="line" smooth="yes"/>
      <point x="146" y="386.352"/>
      <point x="180.843" y="464"/>
      <point x="274.335" y="464" type="curve" smooth="yes"/>
      <point x="366.184" y="464"/>
      <point x="392" y="388.958"/>
      <point x="392" y="309.622" type="curve" smooth="yes"/>
      <point x="392" y="211.381" type="line" smooth="yes"/>
      <point x="392" y="133.828"/>
      <point x="368.013" y="56"/>
    </contour>
  </outline>
</glyph>
<glyph name="d" format="2">
  <advance width="523"/>
  <unicode hex="0064"/>
  <anchor x="236" y="586" name="top"/>
  <anchor x="236" y="-86" name="bottom"/>
  <outline>
    <contour>
      <point x="376" y="0" type="line"/>
      <point x="446" y="0" type="line"/>
      <point x="446" y="707" type="line"/>
      <point x="376" y="707" type="line"/>
      <point x="376" y="446" type="line"/>
      <point x="346.491" y="498.741"/>
      <point x="297.052" y="526"/>
      <point x="237" y="526" type="curve" smooth="yes"/>
      <point x="108.649" y="526"/>
      <point x="60" y="428.247"/>
      <point x="60" y="313" type="curve" smooth="yes"/>
      <point x="60" y="207" type="line" smooth="yes"/>
      <point x="60" y="93.721"/>
      <point x="109.546" y="-6"/>
      <point x="236" y="-6" type="curve" smooth="yes"/>
      <point x="294.114" y="-6"/>
      <point x="346.9" y="16.637"/>
      <point x="376" y="69" type="curve"/>
    </contour>
    <contour>
      <point x="246" y="56" type="curve" smooth="yes"/>
      <point x="154.021" y="56"/>
      <point x="131" y="133.517"/>
      <point x="131" y="211" type="curve" smooth="yes"/>
      <point x="131" y="309" type="line" smooth="yes"/>
      <point x="131" y="389.144"/>
      <point x="156.867" y="463"/>
      <point x="250" y="463" type="curve" smooth="yes"/>
      <point x="342.879" y="463"/>
      <point x="376" y="384.063"/>
      <point x="376" y="303" type="curve" smooth="yes"/>
      <point x="376" y="212" type="line" smooth="yes"/>
      <point x="376" y="128.69"/>
      <point x="338.565" y="56"/>
    </contour>
  </outline>
</glyph>
<glyph name="j" format="2">
  <advance width="225"/>
  <unicode hex="006A"/>
  <outline>
    <contour>
      <point x="75" y="614" type="line"/>
      <point x="148" y="614" type="line"/>
      <point x="148" y="707" type="line"/>
      <point x="75" y="707" type="line"/>
    </contour>
    <contour>
      <point x="-31" y="-156" type="line"/>
      <point x="18" y="-156" type="line" smooth="yes"/>
      <point x="107.016" y="-156"/>
      <point x="146" y="-104.166"/>
      <point x="146" y="-19" type="curve" smooth="yes"/>
      <point x="146" y="519" type="line"/>
      <point x="77" y="519" type="line"/>
      <point x="77" y="-15" type="line" smooth="yes"/>
      <point x="77" y="-77.348"/>
      <point x="39.895" y="-91.955"/>
      <point x="-21.147" y="-91.955" type="curve" smooth="yes"/>
      <point x="-31" y="-91.955" type="line"/>
    </contour>
  </outline>
</glyph>
<glyph name="m" format="2">
  <advance width="844"/>
  <unicode hex="006D"/>
  <anchor x="424" y="586" name="top"/>
  <anchor x="236" y="-86" name="bottom"/>
  <outline>
    <contour>
      <point x="77" y="0" type="line"/>
      <point x="146" y="0" type="line"/>
      <point x="146" y="331" type="line" smooth="yes"/>
      <point x="146" y="407.404"/>
      <point x="188.001" y="463"/>
      <point x="268" y="463" type="curve" smooth="yes"/>
      <point x="350.684" y="463"/>
      <point x="387" y="408.727"/>
      <point x="387" y="331" type="curve" smooth="yes"/>
      <point x="387" y="0" type="line"/>
      <point x="458" y="0" type="line"/>
      <point x="458" y="334" type="line" smooth="yes"/>
      <point x="458" y="411.905"/>
      <point x="499.466" y="463"/>
      <point x="580" y="463" type="curve" smooth="yes"/>
      <point x="662.172" y="463"/>
      <point x="698" y="407.878"/>
      <point x="698" y="331" type="curve" smooth="yes"/>
      <point x="698" y="0" type="line"/>
      <point x="768" y="0" type="line"/>
      <point x="768" y="341" type="line" smooth="yes"/>
      <point x="768" y="453.037"/>
      <point x="708.422" y="525"/>
      <point x="593" y="525" type="curve" smooth="yes"/>
      <point x="525.048" y="525"/>
      <point x="469.769" y="497.447"/>
      <point x="435" y="438" type="curve"/>
      <point x="404.624" y="499.002"/>
      <point x="352.696" y="525"/>
      <point x="286" y="525" type="curve" smooth="yes"/>
      <point x="231.369" y="525"/>
      <point x="175.703" y="503"/>
      <point x="145" y="456" type="curve"/>
      <point x="145" y="519" type="line"/>
      <point x="77" y="519" type="line"/>
    </contour>
  </outline>
</glyph>
<glyph name="s" format="2">
  <advance width="473"/>
  <unicode hex="0073"/>
  <anchor x="239" y="586" name="top"/>
  <anchor x="217" y="0" name="b.cedilla"/>
  <anchor x="239" y="-86" name="bottom"/>
  <outline>
    <contour>
      <point x="48.003" y="150" type="line"/>
      <point x="48.003" y="145.637" type="line" smooth="yes"/>
      <point x="48.003" y="38.944"/>
      <point x="139.24" y="-6"/>
      <point x="236" y="-6" type="curve" smooth="yes"/>
      <point x="334.303" y="-6"/>
      <point x="431" y="35.596"/>
      <point x="431" y="148" type="curve" smooth="yes"/>
      <point x="431" y="260.784"/>
      <point x="340.803" y="277.047"/>
      <point x="258.269" y="291.874" type="curve" smooth="yes"/>
      <point x="232.231" y="296.552" type="line" smooth="yes"/>
      <point x="183.233" y="305.354"/>
      <point x="124" y="319.221"/>
      <point x="124" y="381" type="curve" smooth="yes"/>
      <point x="124" y="445.484"/>
      <point x="183.552" y="469"/>
      <point x="239" y="469" type="curve" smooth="yes"/>
      <point x="294.503" y="469"/>
      <point x="356.957" y="446.089"/>
      <point x="356.957" y="382.313" type="curve" smooth="yes"/>
      <point x="356.957" y="378" type="line"/>
      <point x="424.998" y="378" type="line"/>
      <point x="424.998" y="381.984" type="line" smooth="yes"/>
      <point x="424.998" y="486.501"/>
      <point x="329.109" y="526"/>
      <point x="237" y="526" type="curve" smooth="yes"/>
      <point x="145.448" y="526"/>
      <point x="56" y="480.549"/>
      <point x="56" y="378" type="curve" smooth="yes"/>
      <point x="56" y="270.868"/>
      <point x="139.385" y="252.639"/>
      <point x="219.355" y="238.442" type="curve" smooth="yes"/>
      <point x="251.162" y="232.795" type="line" smooth="yes"/>
      <point x="303" y="223.592"/>
      <point x="364" y="209.829"/>
      <point x="364" y="144" type="curve" smooth="yes"/>
      <point x="364" y="75.588"/>
      <point x="296.364" y="53"/>
      <point x="239" y="53" type="curve" smooth="yes"/>
      <point x="179.582" y="53"/>
      <point x="116.04" y="78.106"/>
      <point x="116.04" y="145.637" type="curve" smooth="yes"/>
      <point x="116.04" y="150" type="line"/>
    </contour>
  </outline>
</glyph>
<glyph name="v" format="2">
  <advance width="449"/>
  <unicode hex="0076"/>
  <anchor x="225" y="586" name="top"/>
  <anchor x="225" y="-86" name="bottom"/>
  <outline>
    <contour>
      <point x="194" y="0" type="line"/>
      <point x="256" y="0" type="line"/>
      <point x="435" y="519" type="line"/>
      <point x="360" y="519" type="line"/>
      <point x="225" y="102" type="line"/>
      <point x="90" y="519" type="line"/>
      <point x="14" y="519" type="line"/>
    </contour>
  </outline>
</glyph>
<glyph name="y" format="2">
  <advance width="449"/>
  <unicode hex="0079"/>
  <anchor x="220" y="586" name="top"/>
  <anchor x="339" y="-114" name="dot"/>
  <anchor x="220" y="578" name="t.ring"/>
  <outline>
    <contour>
      <point x="69" y="-156" type="line"/>
      <point x="73.32" y="-156.012" type="line"/>
      <point x="157.063" y="-156.012"/>
      <point x="206.663" y="-140.768"/>
      <point x="236" y="-56" type="curve" smooth="yes"/>
      <point x="435" y="519" type="line"/>
      <point x="362" y="519" type="line"/>
      <point x="226" y="106" type="line"/>
      <point x="90" y="519" type="line"/>
      <point x="14" y="519" type="line"/>
      <point x="193" y="5" type="line"/>
      <point x="186.928" y="-13.561" type="line" smooth="yes"/>
      <point x="166.972" y="-74.56"/>
      <point x="151.846" y="-92.023"/>
      <point x="74.34" y="-92.023" type="curve"/>
      <point x="69" y="-92" type="line"/>
    </contour>
  </outline>
</glyph>
<glyph name="ordfeminine" format="2">
  <advance width="337"/>
  <unicode hex="00AA"/>
  <outline>
    <contour>
      <point x="220" y="440" type="line"/>
      <point x="284" y="440" type="line"/>
      <point x="284" y="656" type="line" smooth="yes"/>
      <point x="284" y="727"/>
      <point x="240" y="766"/>
      <point x="161" y="766" type="curve" smooth="yes"/>
      <point x="89" y="766"/>
      <point x="44" y="730"/>
      <point x="44" y="672" type="curve" smooth="yes"/>
      <point x="44" y="668" type="line"/>
      <point x="105" y="668" type="line"/>
      <point x="105" y="671" type="line" smooth="yes"/>
      <point x="105" y="698"/>
      <point x="127" y="716"/>
      <point x="161" y="716" type="curve" smooth="yes"/>
      <point x="197" y="716"/>
      <point x="218" y="695"/>
      <point x="218" y="659" type="curve" smooth="yes"/>
      <point x="218" y="628" type="line"/>
      <point x="175" y="628" type="line" smooth="yes"/>
      <point x="79" y="628"/>
      <point x="36" y="600"/>
      <point x="36" y="536" type="curve" smooth="yes"/>
      <point x="36" y="472"/>
      <point x="74" y="436"/>
      <point x="140" y="436" type="curve" smooth="yes"/>
      <point x="176" y="436"/>
      <point x="199" y="446"/>
      <point x="220" y="472" type="curve"/>
    </contour>
    <contour>
      <point x="218" y="582" type="line"/>
      <point x="218" y="553" type="line" smooth="yes"/>
      <point x="218" y="510"/>
      <point x="197" y="490"/>
      <point x="154" y="490" type="curve" smooth="yes"/>
      <point x="118" y="490"/>
      <point x="99" y="506"/>
      <point x="99" y="537" type="curve" smooth="yes"/>
      <point x="99" y="566"/>
      <point x="118" y="582"/>
      <point x="155" y="582" type="curve" smooth="yes"/>
    </contour>
  </outline>
</glyph>
<glyph name="onequarter" format="2">
  <advance width="687"/>
  <unicode hex="00BC"/>
  <outline>
    <contour>
      <point x="94" y="0" type="line"/>
      <point x="159" y="0" type="line"/>
      <point x="541" y="707" type="line"/>
      <point x="476" y="707" type="line"/>
    </contour>
    <contour>
      <point x="101" y="280" type="line"/>
      <point x="172" y="280" type="line"/>
      <point x="172" y="707" type="line"/>
      <point x="101" y="707" type="line"/>
      <point x="27" y="652" type="line"/>
      <point x="27" y="576" type="line"/>
      <point x="101" y="632" type="line"/>
    </contour>
    <contour>
      <point x="385" y="77" type="line"/>
      <point x="546" y="77" type="line"/>
      <point x="546" y="0" type="line"/>
      <point x="616" y="0" type="line"/>
      <point x="616" y="77" type="line"/>
      <point x="656" y="77" type="line"/>
      <point x="656" y="137" type="line"/>
      <point x="616" y="137" type="line"/>
      <point x="616" y="238" type="line"/>
      <point x="546" y="238" type="line"/>
      <point x="546" y="137" type="line"/>
      <point x="456" y="137" type="line"/>
      <point x="574" y="427" type="line"/>
      <point x="505" y="427" type="line"/>
      <point x="385" y="137" type="line"/>
    </contour>
  </outline>
</glyph>
<glyph name="threequarters" format="2">
  <advance width="799"/>
  <unicode hex="00BE"/>
  <outline>
    <contour>
      <point x="194" y="0" type="line"/>
      <point x="258" y="0" type="line"/>
      <point x="640" y="707" type="line"/>
      <point x="575" y="707" type="line"/>
    </contour>
    <contour>
      <point x="40.021" y="394" type="line"/>
      <point x="40.021" y="389.563" type="line" smooth="yes"/>
      <point x="40.021" y="313.284"/>
      <point x="80.912" y="273"/>
      <point x="160" y="273" type="curve" smooth="yes"/>
      <point x="231.513" y="273"/>
      <point x="283.846" y="320.054"/>
      <point x="283.846" y="393" type="curve" smooth="yes"/>
      <point x="283.846" y="405.999" type="line" smooth="yes"/>
      <point x="283.846" y="448.561"/>
      <point x="268.166" y="485.846"/>
      <point x="225" y="505" type="curve"/>
      <point x="258.184" y="521.596"/>
      <point x="277.828" y="556.342"/>
      <point x="277.828" y="593" type="curve" smooth="yes"/>
      <point x="277.828" y="604.813" type="line" smooth="yes"/>
      <point x="277.828" y="673.452"/>
      <point x="233.311" y="713"/>
      <point x="160" y="713" type="curve" smooth="yes"/>
      <point x="92.973" y="713"/>
      <point x="42" y="674.209"/>
      <point x="42" y="604" type="curve" smooth="yes"/>
      <point x="42" y="592" type="line"/>
      <point x="104.04" y="592" type="line"/>
      <point x="104.04" y="597.155" type="line" smooth="yes"/>
      <point x="104.04" y="631.775"/>
      <point x="117.975" y="656"/>
      <point x="158" y="656" type="curve" smooth="yes"/>
      <point x="192.812" y="656"/>
      <point x="209.856" y="629.262"/>
      <point x="209.856" y="597" type="curve" smooth="yes"/>
      <point x="209.856" y="586.323" type="line" smooth="yes"/>
      <point x="209.856" y="540.58"/>
      <point x="186.681" y="529.078"/>
      <point x="144.005" y="529.078" type="curve" smooth="yes"/>
      <point x="133" y="529.078" type="line"/>
      <point x="133" y="471.928" type="line"/>
      <point x="142.719" y="471.928" type="line" smooth="yes"/>
      <point x="185.652" y="471.928"/>
      <point x="216.91" y="458.872"/>
      <point x="216.91" y="406" type="curve" smooth="yes"/>
      <point x="216.91" y="396.288" type="line" smooth="yes"/>
      <point x="216.91" y="359.349"/>
      <point x="204.497" y="329"/>
      <point x="159" y="329" type="curve" smooth="yes"/>
      <point x="118.389" y="329"/>
      <point x="101.045" y="352.653"/>
      <point x="101.045" y="388.934" type="curve" smooth="yes"/>
      <point x="101.045" y="394" type="line"/>
    </contour>
    <contour>
      <point x="497" y="77" type="line"/>
      <point x="658" y="77" type="line"/>
      <point x="658" y="0" type="line"/>
      <point x="728" y="0" type="line"/>
      <point x="728" y="77" type="line"/>
      <point x="768" y="77" type="line"/>
      <point x="768" y="137" type="line"/>
      <point x="728" y="137" type="line"/>
      <point x="728" y="238" type="line"/>
      <point x="658" y="238" type="line"/>
      <point x="658" y="137" type="line"/>
      <point x="568" y="137" type="line"/>
      <point x="686" y="427" type="line"/>
      <point x="617" y="427" type="line"/>
      <point x="497" y="137" type="line"/>
    </contour>
  </outline>
</glyph>
<glyph name="questiondown" format="2">
  <advance width="439"/>
  <unicode hex="00BF"/>
  <outline>
    <contour>
      <point x="181" y="424" type="line"/>
      <point x="272" y="424" type="line"/>
      <point x="272" y="519" type="line"/>
      <point x="181" y="519" type="line"/>
    </contour>
    <contour>
      <point x="327" y="13" type="line"/>
      <point x="327" y="-59.861"/>
      <point x="292.297" y="-98"/>
      <point x="226" y="-98" type="curve" smooth="yes"/>
      <point x="160.72" y="-98"/>
      <point x="123" y="-60.28"/>
      <point x="123" y="5" type="curve" smooth="yes"/>
      <point x="123" y="47.36"/>
      <point x="141.189" y="85.059"/>
      <point x="189.261" y="142.331" type="curve" smooth="yes"/>
      <point x="206.784" y="163.208" type="line" smooth="yes"/>
      <point x="246.18" y="210.144"/>
      <point x="263" y="251.97"/>
      <point x="263" y="303" type="curve" smooth="yes"/>
      <point x="263" y="340" type="line"/>
      <point x="188.16" y="340" type="line"/>
      <point x="188.16" y="311.612" type="line" smooth="yes"/>
      <point x="188.16" y="261.678"/>
      <point x="180.184" y="236.995"/>
      <point x="155" y="209" type="curve" smooth="yes"/>
      <point x="136.052" y="187.936" type="line" smooth="yes"/>
      <point x="74.018" y="118.977"/>
      <point x="48" y="64.921"/>
      <point x="48" y="5" type="curve" smooth="yes"/>
      <point x="48" y="-98.5"/>
      <point x="117.473" y="-166"/>
      <point x="224" y="-166" type="curve" smooth="yes"/>
      <point x="337.772" y="-166"/>
      <point x="401" y="-102.058"/>
      <point x="401" y="13" type="curve"/>
    </contour>
  </outline>
</glyph>
<glyph name="Oslash" format="2">
  <advance width="624"/>
  <unicode hex="00D8"/>
  <anchor x="309" y="773" name="top"/>
  <outline>
    <component base="O"/>
    <contour>
      <point x="68" y="-20" type="line"/>
      <point x="127" y="-20" type="line"/>
      <point x="557" y="727" type="line"/>
      <point x="498" y="727" type="line"/>
    </contour>
  </outline>
</glyph>
<glyph name="eth" format="2">
  <advance width="507"/>
  <unicode hex="00F0"/>
  <outline>
    <contour>
      <point x="134" y="535" type="line"/>
      <point x="239" y="566" type="line"/>
      <point x="308" y="471" type="line"/>
      <point x="286.034" y="481.958"/>
      <point x="261.275" y="485"/>
      <point x="237" y="485" type="curve" smooth="yes"/>
      <point x="107.254" y="485"/>
      <point x="60" y="383.462"/>
      <point x="60" y="268" type="curve" smooth="yes"/>
      <point x="60" y="212" type="line" smooth="yes"/>
      <point x="60" y="85.289"/>
      <point x="115.939" y="-9"/>
      <point x="253" y="-9" type="curve" smooth="yes"/>
      <point x="394.945" y="-9"/>
      <point x="446.896" y="87.696"/>
      <point x="446.896" y="217" type="curve" smooth="yes"/>
      <point x="446.896" y="238.995" type="line" smooth="yes"/>
      <point x="446.896" y="358.992"/>
      <point x="422.442" y="426.415"/>
      <point x="375.357" y="492.896" type="curve" smooth="yes"/>
      <point x="308" y="588" type="line"/>
      <point x="389" y="612" type="line"/>
      <point x="374" y="668" type="line"/>
      <point x="272" y="637" type="line"/>
      <point x="221" y="707" type="line"/>
      <point x="137" y="707" type="line"/>
      <point x="203" y="615" type="line"/>
      <point x="119" y="590" type="line"/>
    </contour>
    <contour>
      <point x="255" y="57" type="curve" smooth="yes"/>
      <point x="159.202" y="57"/>
      <point x="130" y="126.704"/>
      <point x="130" y="212" type="curve" smooth="yes"/>
      <point x="130" y="270" type="line" smooth="yes"/>
      <point x="130" y="354.993"/>
      <point x="160.833" y="421"/>
      <point x="255" y="421" type="curve" smooth="yes"/>
      <point x="349.255" y="421"/>
      <point x="377" y="351.433"/>
      <point x="377" y="268" type="curve" smooth="yes"/>
      <point x="377" y="211" type="line" smooth="yes"/>
      <point x="377" y="127.827"/>
      <point x="349.318" y="57"/>
    </contour>
  </outline>
</glyph>
<glyph name="dcaron" format="2">
  <advance width="572"/>
  <unicode hex="010F"/>
  <outline>
    <component base="d"/>
    <contour>
      <point x="508" y="533" type="line"/>
      <point x="572" y="595" type="line"/>
      <point x="572" y="707" type="line"/>
      <point x="508" y="707" type="line"/>
    </contour>
  </outline>
</glyph>
<glyph name="Dcroat" format="2">
  <advance width="685"/>
  <unicode hex="0110"/>
  <outline>
    <component base="D" xOffset="49"/>
    <contour>
      <point x="39" y="391" type="line"/>
      <point x="39" y="324" type="line"/>
      <point x="350" y="324" type="line"/>
      <point x="350" y="391" type="line"/>
    </contour>
  </outline>
</glyph>
<glyph name="dcroat" format="2">
  <advance width="523"/>
  <unicode hex="0111"/>
  <outline>
    <component base="d"/>
    <contour>
      <point x="257" y="591" type="line"/>
      <point x="523" y="591" type="line"/>
      <point x="523" y="635" type="line"/>
      <point x="257" y="635" type="line"/>
    </contour>
  </outline>
</glyph>
<glyph name="tcaron" format="2">
  <advance width="348"/>
  <unicode hex="0165"/>
  <outline>
    <component base="t"/>
    <contour>
      <point x="258" y="533" type="line"/>
      <point x="322" y="595" type="line"/>
      <point x="322" y="707" type="line"/>
      <point x="258" y="707" type="line"/>
    </contour>
  </outline>
</glyph>
<glyph name="Ocenteredtilde" format="2">
  <advance width="624"/>
  <unicode hex="019F"/>
  <outline>
    <component base="O"/>
    <contour>
      <point x="120" y="322" type="line"/>
      <point x="502" y="322" type="line"/>
      <point x="502" y="389" type="line"/>
      <point x="120" y="389" type="line"/>
    </contour>
  </outline>
</glyph>
<glyph name="obarred" format="2">
  <advance width="517"/>
  <unicode hex="0275"/>
  <outline>
    <component base="o"/>
    <contour>
      <point x="120" y="228" type="line"/>
      <point x="402" y="228" type="line"/>
      <point x="402" y="295" type="line"/>
      <point x="120" y="295" type="line"/>
    </contour>
  </outline>
</glyph>
<glyph name="hungarumlaut" format="2">
  <advance width="512"/>
  <unicode hex="02DD"/>
  <outline>
    <contour>
      <point x="291" y="586" type="line"/>
      <point x="356" y="586" type="line"/>
      <point x="478" y="714" type="line"/>
      <point x="392" y="714" type="line"/>
    </contour>
    <contour>
      <point x="151" y="586" type="line"/>
      <point x="216" y="586" type="line"/>
      <point x="338" y="714" type="line"/>
      <point x="252" y="714" type="line"/>
    </contour>
  </outline>
</glyph>
<glyph name="uni0301" format="2">
  <unicode hex="0301"/>
  <anchor x="0" y="586" name="_top"/>
  <outline>
    <contour>
      <point x="-76.5" y="586" type="line"/>
      <point x="-11.5" y="586" type="line"/>
      <point x="110.5" y="714" type="line"/>
      <point x="24.5" y="714" type="line"/>
    </contour>
  </outline>
</glyph>
<glyph name="uni0302" format="2">
  <unicode hex="0302"/>
  <anchor x="0" y="586" name="_top"/>
  <outline>
    <contour>
      <point x="-137.5" y="575" type="line"/>
      <point x="-74.5" y="575" type="line"/>
      <point x="0.5" y="673" type="line"/>
      <point x="74.5" y="575" type="line"/>
      <point x="137.5" y="575" type="line"/>
      <point x="28.5" y="723" type="line"/>
      <point x="-28.5" y="723" type="line"/>
    </contour>
  </outline>
</glyph>
<glyph name="uni0303" format="2">
  <unicode hex="0303"/>
  <anchor x="0" y="586" name="_top"/>
  <outline>
    <contour>
      <point x="-126.5" y="583" type="line"/>
      <point x="-98.491" y="613.018"/>
      <point x="-81.273" y="623"/>
      <point x="-57.5" y="623" type="curve" smooth="yes"/>
      <point x="-21.389" y="623"/>
      <point x="10" y="584"/>
      <point x="55.499" y="584" type="curve" smooth="yes"/>
      <point x="79.939" y="584"/>
      <point x="104.752" y="597.281"/>
      <point x="126.499" y="622" type="curve"/>
      <point x="126.499" y="684" type="line"/>
      <point x="99.038" y="654.577"/>
      <point x="81.057" y="644"/>
      <point x="58.499" y="644" type="curve" smooth="yes"/>
      <point x="22.475" y="644"/>
      <point x="-15.25" y="684"/>
      <point x="-55.501" y="684" type="curve" smooth="yes"/>
      <point x="-82.281" y="684"/>
      <point x="-102.689" y="672.79"/>
      <point x="-126.501" y="645" type="curve"/>
    </contour>
  </outline>
</glyph>
<glyph name="uni0307" format="2">
  <unicode hex="0307"/>
  <anchor x="0" y="586" name="_top"/>
  <outline>
    <contour>
      <point x="-37" y="604" type="line"/>
      <point x="37" y="604" type="line"/>
      <point x="37" y="696" type="line"/>
      <point x="-37" y="696" type="line"/>
    </contour>
  </outline>
</glyph>
<glyph name="uni030B" format="2">
  <unicode hex="030B"/>
  <anchor x="0" y="586" name="_top"/>
  <outline>
    <contour>
      <point x="-107" y="586" type="line"/>
      <point x="-42" y="586" type="line"/>
      <point x="80" y="714" type="line"/>
      <point x="-6" y="714" type="line"/>
    </contour>
    <contour>
      <point x="33" y="586" type="line"/>
      <point x="98" y="586" type="line"/>
      <point x="220" y="714" type="line"/>
      <point x="134" y="714" type="line"/>
    </contour>
  </outline>
</glyph>
<glyph name="uni030C" format="2">
  <unicode hex="030C"/>
  <anchor x="0" y="586" name="_top"/>
  <outline>
    <contour>
      <point x="-28.5" y="577" type="line"/>
      <point x="28.5" y="577" type="line"/>
      <point x="137.5" y="724" type="line"/>
      <point x="74.5" y="724" type="line"/>
      <point x="0.5" y="627" type="line"/>
      <point x="-74.5" y="724" type="line"/>
      <point x="-137.5" y="724" type="line"/>
    </contour>
  </outline>
</glyph>
<glyph name="uni030F" format="2">
  <unicode hex="030F"/>
  <anchor x="0" y="585" name="_top"/>
  <outline>
    <contour>
      <point x="-74.5658" y="586" type="line"/>
      <point x="-9.5658" y="586" type="line"/>
      <point x="-110.566" y="714" type="line"/>
      <point x="-196.566" y="714" type="line"/>
    </contour>
    <contour>
      <point x="60.4033" y="586" type="line"/>
      <point x="125.403" y="586" type="line"/>
      <point x="24.4033" y="714" type="line"/>
      <point x="-61.5967" y="714" type="line"/>
    </contour>
  </outline>
</glyph>
<glyph name="Gecyr" format="2">
  <advance width="551"/>
  <unicode hex="0413"/>
  <anchor x="316" y="773" name="top"/>
  <outline>
    <contour>
      <point x="136.82" y="640" type="line"/>
      <point x="511" y="640" type="line"/>
      <point x="511" y="707" type="line"/>
      <point x="136.82" y="707" type="line"/>
    </contour>
    <contour>
      <point x="82" y="0" type="line"/>
      <point x="157" y="0" type="line"/>
      <point x="157" y="707.213" type="line"/>
      <point x="82" y="707" type="line"/>
    </contour>
  </outline>
</glyph>
<glyph name="Pecyr" format="2">
  <advance width="635"/>
  <unicode hex="041F"/>
  <outline>
    <contour>
      <point x="136.82" y="640" type="line"/>
      <point x="511" y="640" type="line"/>
      <point x="511" y="707" type="line"/>
      <point x="136.82" y="707" type="line"/>
    </contour>
    <contour>
      <point x="82" y="0" type="line"/>
      <point x="157" y="0" type="line"/>
      <point x="157" y="707.213" type="line"/>
      <point x="82" y="707" type="line"/>
    </contour>
    <contour>
      <point x="478" y="-0.213" type="line"/>
      <point x="553" y="-0.213" type="line"/>
      <point x="553" y="707" type="line"/>
      <point x="478" y="706.787" type="line"/>
    </contour>
  </outline>
</glyph>
<glyph name="Shacyr" format="2">
  <advance width="838"/>
  <unicode hex="0428"/>
  <anchor x="677" y="695" name="top"/>
  <outline>
    <contour>
      <point x="82" y="0" type="line"/>
      <point x="158" y="0" type="line"/>
      <point x="158" y="707" type="line"/>
      <point x="82" y="707" type="line"/>
    </contour>
    <contour>
      <point x="381" y="0" type="line"/>
      <point x="457" y="0" type="line"/>
      <point x="457" y="707" type="line"/>
      <point x="381" y="707" type="line"/>
    </contour>
    <contour>
      <point x="680" y="0" type="line"/>
      <point x="756" y="0" type="line"/>
      <point x="756" y="707" type="line"/>
      <point x="680" y="707" type="line"/>
    </contour>
    <contour>
      <point x="125" y="0" type="line"/>
      <point x="733" y="0" type="line"/>
      <point x="733" y="67" type="line"/>
      <point x="125" y="67" type="line"/>
    </contour>
  </outline>
</glyph>
<glyph name="Ereversedcyr" format="2">
  <advance width="617"/>
  <unicode hex="042D"/>
  <anchor x="302" y="773" name="top"/>
  <outline>
    <component base="C" xScale="-1" xOffset="617.927"/>
    <contour>
      <point x="250.776" y="327.714" type="line"/>
      <point x="491.003" y="327.714" type="line"/>
      <point x="491.003" y="394.714" type="line"/>
      <point x="250.776" y="394.714" type="line"/>
    </contour>
  </outline>
</glyph>
<glyph name="becyr" format="2">
  <advance width="506"/>
  <unicode hex="0431"/>
  <outline>
    <contour>
      <point x="251.784" y="-6" type="curve" smooth="yes"/>
      <point x="378.525" y="-6"/>
      <point x="446" y="93.767"/>
      <point x="446" y="207.371" type="curve" smooth="yes"/>
      <point x="446" y="273.631" type="line" smooth="yes"/>
      <point x="446" y="388.045"/>
      <point x="399.284" y="486"/>
      <point x="271.785" y="486" type="curve" smooth="yes"/>
      <point x="212.779" y="486"/>
      <point x="170.838" y="469.396"/>
      <point x="133.38" y="431.206" type="curve"/>
      <point x="60.942" y="431.206" type="line"/>
      <point x="61.454" y="232.249" type="line" smooth="yes"/>
      <point x="61.821" y="89.719"/>
      <point x="119.57" y="-6"/>
    </contour>
    <contour>
      <point x="253.596" y="56" type="curve" smooth="yes"/>
      <point x="163.389" y="56"/>
      <point x="130" y="130.58"/>
      <point x="130" y="212.383" type="curve" smooth="yes"/>
      <point x="130" y="263.607" type="line" smooth="yes"/>
      <point x="130" y="346.352"/>
      <point x="164.843" y="424"/>
      <point x="258.335" y="424" type="curve" smooth="yes"/>
      <point x="350.184" y="424"/>
      <point x="376" y="348.958"/>
      <point x="376" y="269.622" type="curve" smooth="yes"/>
      <point x="376" y="211.381" type="line" smooth="yes"/>
      <point x="376" y="133.828"/>
      <point x="344.717" y="56"/>
    </contour>
    <contour>
      <point x="61" y="379.582" type="line"/>
      <point x="130" y="380.289" type="line"/>
      <point x="130" y="436.45" type="line" smooth="yes"/>
      <point x="130" y="637.148"/>
      <point x="264.004" y="582.622"/>
      <point x="376.39" y="638.718" type="curve"/>
      <point x="376.39" y="707" type="line"/>
      <point x="234.591" y="628.763"/>
      <point x="61" y="712.294"/>
      <point x="61" y="435.643" type="curve" smooth="yes"/>
    </contour>
  </outline>
</glyph>
<glyph name="decyr" format="2">
  <advance width="539"/>
  <unicode hex="0434"/>
  <outline>
    <contour>
      <point x="448.998" y="-170" type="line"/>
      <point x="518.998" y="-170" type="line"/>
      <point x="518.998" y="65.219" type="line"/>
      <point x="428.998" y="65.219" type="line"/>
      <point x="428.998" y="-0.015" type="line"/>
      <point x="448.998" y="-0.015" type="line"/>
    </contour>
    <contour>
      <point x="20" y="-170" type="line"/>
      <point x="95" y="-170" type="line"/>
      <point x="95" y="65" type="line"/>
      <point x="20" y="65" type="line"/>
    </contour>
    <contour>
      <point x="399" y="0" type="line"/>
      <point x="469" y="0" type="line"/>
      <point x="469" y="519" type="line"/>
      <point x="399" y="519" type="line"/>
    </contour>
    <contour>
      <point x="53.648" y="52" type="curve"/>
      <point x="75" y="0" type="line"/>
      <point x="165" y="0"/>
      <point x="219.349" y="143.864"/>
      <point x="233" y="418.43" type="curve" smooth="yes"/>
      <point x="238" y="519" type="line"/>
      <point x="168.602" y="519" type="line"/>
      <point x="162.602" y="418.006" type="line" smooth="yes"/>
      <point x="149.344" y="194.846"/>
      <point x="110.648" y="52"/>
    </contour>
    <contour>
      <point x="86.515" y="-0.002" type="line"/>
      <point x="418.998" y="0.467" type="line"/>
      <point x="418.998" y="65.467" type="line"/>
      <point x="86.515" y="65.467" type="line"/>
    </contour>
    <contour>
      <point x="183" y="452" type="line"/>
      <point x="463" y="452" type="line"/>
      <point x="463" y="519" type="line"/>
      <point x="183" y="519" type="line"/>
    </contour>
  </outline>
</glyph>
<glyph name="zhecyr" format="2">
  <advance width="777"/>
  <unicode hex="0436"/>
  <outline>
    <component base="kacyr" xOffset="277"/>
    <contour>
      <point x="305" y="261" type="line"/>
      <point x="127" y="519" type="line"/>
      <point x="43" y="519" type="line"/>
      <point x="230" y="261" type="line"/>
    </contour>
    <contour>
      <point x="99" y="0" type="line"/>
      <point x="275" y="248" type="line"/>
      <point x="232" y="306" type="line"/>
      <point x="14" y="0" type="line"/>
    </contour>
    <contour>
      <point x="374" y="240" type="line"/>
      <point x="374" y="305" type="line"/>
      <point x="239" y="305" type="line"/>
      <point x="239" y="240" type="line"/>
    </contour>
  </outline>
</glyph>
<glyph name="icyr" format="2">
  <advance width="547"/>
  <unicode hex="0438"/>
  <anchor x="268" y="586" name="top"/>
  <outline>
    <contour>
      <point x="400" y="0" type="line"/>
      <point x="470" y="0" type="line"/>
      <point x="470" y="519" type="line"/>
      <point x="410" y="519" type="line"/>
      <point x="404.395" y="479.184"/>
      <point x="400" y="419"/>
      <point x="400" y="379" type="curve" smooth="yes"/>
    </contour>
    <contour>
      <point x="77" y="0" type="line"/>
      <point x="137" y="0" type="line"/>
      <point x="143" y="40"/>
      <point x="147" y="100"/>
      <point x="147" y="140" type="curve" smooth="yes"/>
      <point x="147" y="519" type="line"/>
      <point x="77" y="519" type="line"/>
    </contour>
    <contour>
      <point x="123" y="0" type="line"/>
      <point x="157" y="0" type="line"/>
      <point x="377" y="379" type="line" smooth="yes"/>
      <point x="389" y="400"/>
      <point x="394" y="409"/>
      <point x="400" y="425" type="curve"/>
      <point x="424" y="425" type="line"/>
      <point x="424" y="519" type="line"/>
      <point x="390" y="519" type="line"/>
      <point x="170" y="140" type="line" smooth="yes"/>
      <point x="161" y="125"/>
      <point x="153" y="108"/>
      <point x="147" y="94" type="curve"/>
      <point x="123" y="94" type="line"/>
    </contour>
  </outline>
</glyph>
<glyph name="elcyr" format="2">
  <advance width="478"/>
  <unicode hex="043B"/>
  <outline>
    <contour>
      <point x="331" y="0" type="line"/>
      <point x="401" y="0" type="line"/>
      <point x="401" y="519" type="line"/>
      <point x="331" y="519" type="line"/>
    </contour>
    <contour>
      <point x="119" y="452" type="line"/>
      <point x="399" y="452" type="line"/>
      <point x="399" y="519" type="line"/>
      <point x="119" y="519" type="line"/>
    </contour>
    <contour>
      <point x="10.324" y="72" type="curve"/>
      <point x="10.324" y="0" type="line"/>
      <point x="74.779" y="0"/>
      <point x="128.037" y="51.865"/>
      <point x="136.945" y="142.404" type="curve" smooth="yes"/>
      <point x="174" y="519" type="line"/>
      <point x="104.602" y="519" type="line"/>
      <point x="69.821" y="187.682" type="line" smooth="yes"/>
      <point x="59.668" y="90.966"/>
      <point x="46.057" y="72"/>
    </contour>
  </outline>
</glyph>
<glyph name="pecyr" format="2">
  <advance width="528"/>
  <unicode hex="043F"/>
  <outline>
    <contour>
      <point x="381" y="0" type="line"/>
      <point x="451" y="0" type="line"/>
      <point x="451" y="519" type="line"/>
      <point x="381" y="519" type="line"/>
    </contour>
    <contour>
      <point x="77" y="0" type="line"/>
      <point x="147" y="0" type="line"/>
      <point x="147" y="519" type="line"/>
      <point x="77" y="519" type="line"/>
    </contour>
    <contour>
      <point x="119" y="453.784" type="line"/>
      <point x="400.998" y="454.253" type="line"/>
      <point x="400.998" y="519.253" type="line"/>
      <point x="119" y="519.253" type="line"/>
    </contour>
  </outline>
</glyph>
<glyph name="tsecyr" format="2">
  <advance width="519"/>
  <unicode hex="0446"/>
  <outline>
    <contour>
      <point x="389" y="0" type="line"/>
      <point x="459" y="0" type="line"/>
      <point x="459" y="519" type="line"/>
      <point x="389" y="519" type="line"/>
    </contour>
    <contour>
      <point x="77" y="0" type="line"/>
      <point x="147" y="0" type="line"/>
      <point x="147" y="519" type="line"/>
      <point x="77" y="519" type="line"/>
    </contour>
    <contour>
      <point x="127" y="-0.002" type="line"/>
      <point x="408.998" y="0.467" type="line"/>
      <point x="408.998" y="65.467" type="line"/>
      <point x="127" y="65.467" type="line"/>
    </contour>
    <contour>
      <point x="438.998" y="-170" type="line"/>
      <point x="508.998" y="-170" type="line"/>
      <point x="508.998" y="65.219" type="line"/>
      <point x="418.998" y="65.219" type="line"/>
      <point x="418.998" y="-0.015" type="line"/>
      <point x="438.998" y="-0.015" type="line"/>
    </contour>
  </outline>
</glyph>
<glyph name="yucyr" format="2">
  <advance width="687"/>
  <unicode hex="044E"/>
  <anchor x="404" y="586" name="top"/>
  <outline>
    <component base="dotlessi" xOffset="-8"/>
    <component base="o" xOffset="170"/>
    <contour>
      <point x="127" y="246" type="line"/>
      <point x="267.543" y="246" type="line"/>
      <point x="267.543" y="311" type="line"/>
      <point x="127" y="311" type="line"/>
    </contour>
  </outline>
</glyph>
<glyph name="eukrcyr" format="2">
  <advance width="515"/>
  <unicode hex="0454"/>
  <outline>
    <contour>
      <point x="387" y="171" type="line"/>
      <point x="387" y="167" type="line" smooth="yes"/>
      <point x="387" y="92.876"/>
      <point x="335.762" y="56"/>
      <point x="264" y="56" type="curve" smooth="yes"/>
      <point x="162.323" y="56"/>
      <point x="130" y="118.027"/>
      <point x="130" y="211" type="curve" smooth="yes"/>
      <point x="130" y="309" type="line" smooth="yes"/>
      <point x="130" y="402.571"/>
      <point x="163.519" y="463"/>
      <point x="265" y="463" type="curve" smooth="yes"/>
      <point x="336.437" y="463"/>
      <point x="387" y="425.406"/>
      <point x="387" y="352" type="curve" smooth="yes"/>
      <point x="387" y="348" type="line"/>
      <point x="455" y="348" type="line"/>
      <point x="455" y="352" type="line" smooth="yes"/>
      <point x="455" y="466.386"/>
      <point x="371.999" y="526"/>
      <point x="262" y="526" type="curve" smooth="yes"/>
      <point x="125.105" y="526"/>
      <point x="60" y="445.586"/>
      <point x="60" y="313" type="curve" smooth="yes"/>
      <point x="60" y="207" type="line" smooth="yes"/>
      <point x="60" y="73.518"/>
      <point x="125.582" y="-6"/>
      <point x="263" y="-6" type="curve" smooth="yes"/>
      <point x="368.926" y="-6"/>
      <point x="455" y="54.565"/>
      <point x="455" y="167" type="curve" smooth="yes"/>
      <point x="455" y="171" type="line"/>
    </contour>
    <contour>
      <point x="298.666" y="246" type="line"/>
      <point x="106" y="246" type="line"/>
      <point x="106" y="311" type="line"/>
      <point x="298.666" y="311" type="line"/>
    </contour>
  </outline>
</glyph>
<glyph name="ljecyr" format="2">
  <advance width="759"/>
  <unicode hex="0459"/>
  <outline>
    <contour>
      <point x="331" y="0" type="line"/>
      <point x="401" y="0" type="line"/>
      <point x="401" y="519" type="line"/>
      <point x="331" y="519" type="line"/>
    </contour>
    <contour>
      <point x="119" y="452" type="line"/>
      <point x="399" y="452" type="line"/>
      <point x="399" y="519" type="line"/>
      <point x="119" y="519" type="line"/>
    </contour>
    <contour>
      <point x="10.324" y="72" type="curve"/>
      <point x="10.324" y="0" type="line"/>
      <point x="74.779" y="0"/>
      <point x="128.037" y="51.865"/>
      <point x="136.945" y="142.404" type="curve" smooth="yes"/>
      <point x="174" y="519" type="line"/>
      <point x="104.602" y="519" type="line"/>
      <point x="69.821" y="187.682" type="line" smooth="yes"/>
      <point x="59.668" y="90.966"/>
      <point x="46.057" y="72"/>
    </contour>
    <contour>
      <point x="367" y="0" type="line"/>
      <point x="534" y="0" type="line" smooth="yes"/>
      <point x="644" y="0"/>
      <point x="699" y="49"/>
      <point x="699" y="147" type="curve" smooth="yes"/>
      <point x="699" y="243.687"/>
      <point x="663.24" y="311"/>
      <point x="550" y="311" type="curve" smooth="yes"/>
      <point x="367" y="311" type="line"/>
      <point x="367" y="246" type="line"/>
      <point x="545" y="246" type="line" smooth="yes"/>
      <point x="601" y="246"/>
      <point x="620" y="200"/>
      <point x="620" y="154" type="curve" smooth="yes"/>
      <point x="620" y="98"/>
      <point x="590" y="65"/>
      <point x="540" y="65" type="curve" smooth="yes"/>
      <point x="367" y="65" type="line"/>
    </contour>
  </outline>
</glyph>
<glyph name="dzhecyr" format="2">
  <advance width="536"/>
  <unicode hex="045F"/>
  <outline>
    <contour>
      <point x="389" y="0" type="line"/>
      <point x="459" y="0" type="line"/>
      <point x="459" y="519" type="line"/>
      <point x="389" y="519" type="line"/>
    </contour>
    <contour>
      <point x="77" y="0" type="line"/>
      <point x="147" y="0" type="line"/>
      <point x="147" y="519" type="line"/>
      <point x="77" y="519" type="line"/>
    </contour>
    <contour>
      <point x="127" y="-0.002" type="line"/>
      <point x="408.998" y="0.467" type="line"/>
      <point x="408.998" y="65.467" type="line"/>
      <point x="127" y="65.467" type="line"/>
    </contour>
    <contour>
      <point x="232.864" y="-170" type="line"/>
      <point x="302.864" y="-170" type="line"/>
      <point x="302.864" y="65.219" type="line"/>
      <point x="232.864" y="65.219" type="line"/>
    </contour>
  </outline>
</glyph>
<glyph name="Geupcyr" format="2">
  <advance width="551"/>
  <unicode hex="0490"/>
  <outline>
    <contour>
      <point x="136.82" y="640" type="line"/>
      <point x="511" y="640" type="line"/>
      <point x="511" y="707" type="line"/>
      <point x="136.82" y="707" type="line"/>
    </contour>
    <contour>
      <point x="82" y="0" type="line"/>
      <point x="157" y="0" type="line"/>
      <point x="157" y="707.213" type="line"/>
      <point x="82" y="707" type="line"/>
    </contour>
    <contour>
      <point x="441" y="707" type="line"/>
      <point x="511" y="707" type="line"/>
      <point x="511" y="852.896" type="line"/>
      <point x="441" y="852.896" type="line"/>
    </contour>
  </outline>
</glyph>
<glyph name="minus" format="2">
  <advance width="402"/>
  <unicode hex="2212"/>
  <outline>
    <contour>
      <point x="60" y="322" type="line"/>
      <point x="342" y="322" type="line"/>
      <point x="342" y="389" type="line"/>
      <point x="60" y="389" type="line"/>
    </contour>
  </outline>
</glyph>
<glyph name="fl" format="2">
  <advance width="614"/>
  <unicode hex="FB02"/>
  <outline>
    <contour>
      <point x="571" y="0" type="line"/>
      <point x="571" y="62" type="line"/>
      <point x="556" y="62" type="line" smooth="yes"/>
      <point x="507.333" y="62"/>
      <point x="483" y="89"/>
      <point x="483" y="143" type="curve" smooth="yes"/>
      <point x="483" y="707" type="line"/>
      <point x="412" y="707" type="line"/>
      <point x="412" y="140" type="line" smooth="yes"/>
      <point x="412" y="49.7"/>
      <point x="462.41" y="0"/>
      <point x="554" y="0" type="curve" smooth="yes"/>
    </contour>
    <contour>
      <point x="96" y="0" type="line"/>
      <point x="166" y="0" type="line"/>
      <point x="166" y="464" type="line"/>
      <point x="275" y="464" type="line"/>
      <point x="275" y="519" type="line"/>
      <point x="166" y="519" type="line"/>
      <point x="166" y="544" type="line" smooth="yes"/>
      <point x="166" y="629.787"/>
      <point x="181.284" y="650.902"/>
      <point x="258.661" y="650.902" type="curve" smooth="yes"/>
      <point x="275" y="650.902" type="line"/>
      <point x="275" y="707" type="line"/>
      <point x="221" y="707" type="line" smooth="yes"/>
      <point x="141.462" y="707"/>
      <point x="96" y="656.048"/>
      <point x="96" y="578" type="curve" smooth="yes"/>
      <point x="96" y="519" type="line"/>
      <point x="30" y="519" type="line"/>
      <point x="30" y="464" type="line"/>
      <point x="96" y="464" type="line"/>
    </contour>
  </outline>
</glyph>
<glyph name="Oacute.loclPLK" format="2">
  <advance width="624"/>
  <outline>
    <contour>
      <point x="312" y="-8" type="curve" smooth="yes"/>
      <point x="468.984" y="-8"/>
      <point x="557" y="88.997"/>
      <point x="557" y="262" type="curve" smooth="yes"/>
      <point x="557" y="445" type="line" smooth="yes"/>
      <point x="557" y="619.805"/>
      <point x="470.389" y="716"/>
      <point x="313" y="716" type="curve" smooth="yes"/>
      <point x="154.698" y="716"/>
      <point x="68" y="620.101"/>
      <point x="68" y="445" type="curve" smooth="yes"/>
      <point x="68" y="262" type="line" smooth="yes"/>
      <point x="68" y="87.956"/>
      <point x="154.716" y="-8"/>
    </contour>
    <contour>
      <point x="313" y="60" type="curve" smooth="yes"/>
      <point x="200.789" y="60"/>
      <point x="142" y="128.072"/>
      <point x="142" y="258" type="curve" smooth="yes"/>
      <point x="142" y="442" type="line" smooth="yes"/>
      <point x="142" y="580.22"/>
      <point x="196.89" y="648"/>
      <point x="308.823" y="648" type="curve" smooth="yes"/>
      <point x="422.287" y="648"/>
      <point x="482" y="576.97"/>
      <point x="482" y="442" type="curve" smooth="yes"/>
      <point x="482" y="258" type="line" smooth="yes"/>
      <point x="482" y="128.055"/>
      <point x="423.913" y="60"/>
    </contour>
    <contour>
      <point x="272" y="773" type="line"/>
      <point x="337" y="773" type="line"/>
      <point x="386" y="901" type="line"/>
      <point x="300" y="901" type="line"/>
    </contour>
  </outline>
</glyph>
<glyph name="Zacute.loclPLK" format="2">
  <advance width="528"/>
  <outline>
    <component base="Z"/>
    <contour>
      <point x="224" y="773" type="line"/>
      <point x="289" y="773" type="line"/>
      <point x="338" y="901" type="line"/>
      <point x="252" y="901" type="line"/>
    </contour>
  </outline>
</glyph>
<glyph name="cacute.loclPLK" format="2">
  <advance width="515"/>
  <outline>
    <component base="c"/>
    <contour>
      <point x="218" y="586" type="line"/>
      <point x="283" y="586" type="line"/>
      <point x="332" y="714" type="line"/>
      <point x="246" y="714" type="line"/>
    </contour>
  </outline>
</glyph>
<glyph name="eight.osf" format="2">
  <advance width="524"/>
  <outline>
    <contour>
      <point x="166" y="373" type="curve"/>
      <point x="106.496" y="346.072"/>
      <point x="68.306" y="281.962"/>
      <point x="68.306" y="209" type="curve" smooth="yes"/>
      <point x="68.306" y="186.35" type="line" smooth="yes"/>
      <point x="68.306" y="62.843"/>
      <point x="139.792" y="-10"/>
      <point x="261" y="-10" type="curve" smooth="yes"/>
      <point x="376.631" y="-10"/>
      <point x="456.535" y="69.277"/>
      <point x="456.535" y="184" type="curve" smooth="yes"/>
      <point x="456.535" y="212.794" type="line" smooth="yes"/>
      <point x="456.535" y="287.24"/>
      <point x="422.98" y="341.797"/>
      <point x="358" y="373" type="curve"/>
      <point x="410.986" y="399.463"/>
      <point x="442.716" y="453.771"/>
      <point x="442.716" y="518" type="curve" smooth="yes"/>
      <point x="442.716" y="537.375" type="line" smooth="yes"/>
      <point x="442.716" y="647.532"/>
      <point x="372.826" y="717"/>
      <point x="262" y="717" type="curve" smooth="yes"/>
      <point x="158.048" y="717"/>
      <point x="82.139" y="641.876"/>
      <point x="82.139" y="539" type="curve" smooth="yes"/>
      <point x="82.139" y="522.958" type="line" smooth="yes"/>
      <point x="82.139" y="449.552"/>
      <point x="109.259" y="401.056"/>
    </contour>
    <contour>
      <point x="157.375" y="522.354" type="curve" smooth="yes"/>
      <point x="157.375" y="539.472" type="line" smooth="yes"/>
      <point x="157.375" y="609.101"/>
      <point x="196.089" y="650"/>
      <point x="262" y="650" type="curve" smooth="yes"/>
      <point x="323.769" y="650"/>
      <point x="368.853" y="603.365"/>
      <point x="368.853" y="539.472" type="curve" smooth="yes"/>
      <point x="368.853" y="522.354" type="line" smooth="yes"/>
      <point x="368.853" y="447.107"/>
      <point x="329.935" y="404"/>
      <point x="262" y="404" type="curve" smooth="yes"/>
      <point x="199.957" y="404"/>
      <point x="157.375" y="452.17"/>
    </contour>
    <contour>
      <point x="142.428" y="189.806" type="curve" smooth="yes"/>
      <point x="142.428" y="209.469" type="line" smooth="yes"/>
      <point x="142.428" y="291.498"/>
      <point x="185.689" y="338"/>
      <point x="262" y="338" type="curve" smooth="yes"/>
      <point x="334.55" y="338"/>
      <point x="381.863" y="287.265"/>
      <point x="381.863" y="209.469" type="curve" smooth="yes"/>
      <point x="381.863" y="189.806" type="line" smooth="yes"/>
      <point x="381.863" y="103.285"/>
      <point x="339.505" y="56"/>
      <point x="262" y="56" type="curve" smooth="yes"/>
      <point x="192.077" y="56"/>
      <point x="142.428" y="111.56"/>
    </contour>
  </outline>
</glyph>
<glyph name="five.tlf" format="2">
  <advance width="524"/>
  <outline>
    <contour>
      <point x="80.027" y="167" type="line"/>
      <point x="80.027" y="160.752" type="line" smooth="yes"/>
      <point x="80.027" y="49.878"/>
      <point x="142.788" y="-10"/>
      <point x="259" y="-10" type="curve" smooth="yes"/>
      <point x="372.798" y="-10"/>
      <point x="440" y="62.028"/>
      <point x="440" y="184" type="curve" smooth="yes"/>
      <point x="440" y="261" type="line" smooth="yes"/>
      <point x="440" y="390.068"/>
      <point x="380.468" y="459"/>
      <point x="269" y="459" type="curve" smooth="yes"/>
      <point x="226.599" y="459"/>
      <point x="183.208" y="440.855"/>
      <point x="159" y="413" type="curve"/>
      <point x="159" y="638" type="line"/>
      <point x="429" y="638" type="line"/>
      <point x="429" y="707" type="line"/>
      <point x="91" y="707" type="line"/>
      <point x="91" y="319" type="line"/>
      <point x="156" y="319" type="line"/>
      <point x="171.876" y="365.121"/>
      <point x="208.897" y="391"/>
      <point x="259" y="391" type="curve" smooth="yes"/>
      <point x="339.947" y="391"/>
      <point x="365.284" y="352.117"/>
      <point x="365.284" y="227.893" type="curve" smooth="yes"/>
      <point x="365.284" y="212.15" type="line" smooth="yes"/>
      <point x="365.284" y="102.469"/>
      <point x="333.842" y="57"/>
      <point x="258" y="57" type="curve" smooth="yes"/>
      <point x="188.814" y="57"/>
      <point x="151.042" y="93.536"/>
      <point x="151.042" y="160.458" type="curve" smooth="yes"/>
      <point x="151.042" y="167" type="line"/>
    </contour>
  </outline>
</glyph>
<glyph name="nacute.loclPLK" format="2">
  <advance width="534"/>
  <outline>
    <component base="n"/>
    <contour>
      <point x="227" y="586" type="line"/>
      <point x="292" y="586" type="line"/>
      <point x="341" y="714" type="line"/>
      <point x="255" y="714" type="line"/>
    </contour>
  </outline>
</glyph>
<glyph name="nine.osf" format="2">
  <advance width="505"/>
  <outline>
    <contour>
      <point x="173" y="-157" type="line"/>
      <point x="251" y="-157" type="line"/>
      <point x="414" y="161" type="line" smooth="yes"/>
      <point x="443.685" y="218.913"/>
      <point x="456" y="261.136"/>
      <point x="456" y="305" type="curve" smooth="yes"/>
      <point x="456" y="339" type="line" smooth="yes"/>
      <point x="456" y="455.668"/>
      <point x="381.278" y="530"/>
      <point x="264" y="530" type="curve" smooth="yes"/>
      <point x="149.144" y="530"/>
      <point x="71" y="451.856"/>
      <point x="71" y="337" type="curve" smooth="yes"/>
      <point x="71" y="303" type="line" smooth="yes"/>
      <point x="71" y="193.187"/>
      <point x="142.365" y="119"/>
      <point x="248" y="119" type="curve" smooth="yes"/>
      <point x="276.299" y="119"/>
      <point x="306.546" y="126.96"/>
      <point x="324" y="139" type="curve"/>
    </contour>
    <contour>
      <point x="146" y="308" type="curve" smooth="yes"/>
      <point x="146" y="340" type="line" smooth="yes"/>
      <point x="146" y="413.794"/>
      <point x="191.436" y="460"/>
      <point x="264" y="460" type="curve" smooth="yes"/>
      <point x="335.93" y="460"/>
      <point x="381" y="413.389"/>
      <point x="381" y="339" type="curve" smooth="yes"/>
      <point x="381" y="307" type="line" smooth="yes"/>
      <point x="381" y="235.192"/>
      <point x="335.199" y="189"/>
      <point x="264" y="189" type="curve" smooth="yes"/>
      <point x="191.738" y="189"/>
      <point x="146" y="235.126"/>
    </contour>
  </outline>
</glyph>
<glyph name="oacute.loclPLK" format="2">
  <advance width="517"/>
  <outline>
    <contour>
      <point x="260" y="-6" type="curve" smooth="yes"/>
      <point x="394.46" y="-6"/>
      <point x="457" y="78.689"/>
      <point x="457" y="207" type="curve" smooth="yes"/>
      <point x="457" y="313" type="line" smooth="yes"/>
      <point x="457" y="441.311"/>
      <point x="394.46" y="526"/>
      <point x="260" y="526" type="curve" smooth="yes"/>
      <point x="125.264" y="526"/>
      <point x="60" y="442.747"/>
      <point x="60" y="313" type="curve" smooth="yes"/>
      <point x="60" y="207" type="line" smooth="yes"/>
      <point x="60" y="77.253"/>
      <point x="125.264" y="-6"/>
    </contour>
    <contour>
      <point x="260" y="56" type="curve" smooth="yes"/>
      <point x="163.552" y="56"/>
      <point x="130" y="124.116"/>
      <point x="130" y="211" type="curve" smooth="yes"/>
      <point x="130" y="309" type="line" smooth="yes"/>
      <point x="130" y="396.523"/>
      <point x="163.155" y="463"/>
      <point x="260" y="463" type="curve" smooth="yes"/>
      <point x="356.486" y="463"/>
      <point x="387" y="395.009"/>
      <point x="387" y="309" type="curve" smooth="yes"/>
      <point x="387" y="211" type="line" smooth="yes"/>
      <point x="387" y="125.623"/>
      <point x="356.075" y="56"/>
    </contour>
    <contour>
      <point x="218" y="586" type="line"/>
      <point x="283" y="586" type="line"/>
      <point x="332" y="714" type="line"/>
      <point x="246" y="714" type="line"/>
    </contour>
  </outline>
</glyph>
<glyph name="one.numr" format="2">
  <advance width="227"/>
  <outline>
    <contour>
      <point x="101" y="280" type="line"/>
      <point x="172" y="280" type="line"/>
      <point x="172" y="707" type="line"/>
      <point x="101" y="707" type="line"/>
      <point x="27" y="652" type="line"/>
      <point x="27" y="576" type="line"/>
      <point x="101" y="632" type="line"/>
    </contour>
  </outline>
</glyph>
<glyph name="one.tlf" format="2">
  <advance width="524"/>
  <outline>
    <contour>
      <point x="305" y="0" type="line"/>
      <point x="379" y="0" type="line"/>
      <point x="379" y="707" type="line"/>
      <point x="304" y="707" type="line"/>
      <point x="105" y="586" type="line"/>
      <point x="105" y="500" type="line"/>
      <point x="305" y="621" type="line"/>
    </contour>
  </outline>
</glyph>
<glyph name="sacute.loclPLK" format="2">
  <advance width="473"/>
  <outline>
    <component base="s"/>
    <contour>
      <point x="196" y="586" type="line"/>
      <point x="261" y="586" type="line"/>
      <point x="310" y="714" type="line"/>
      <point x="224" y="714" type="line"/>
    </contour>
  </outline>
</glyph>
<glyph name="shacyr.loclBGR" format="2">
  <advance width="843"/>
  <outline>
    <contour>
      <point x="767" y="519" type="line"/>
      <point x="698" y="519" type="line"/>
      <point x="698" y="188" type="line" smooth="yes"/>
      <point x="698" y="111.596"/>
      <point x="655.999" y="56"/>
      <point x="576" y="56" type="curve" smooth="yes"/>
      <point x="493.316" y="56"/>
      <point x="457" y="110.273"/>
      <point x="457" y="188" type="curve" smooth="yes"/>
      <point x="457" y="519" type="line"/>
      <point x="386" y="519" type="line"/>
      <point x="386" y="185" type="line" smooth="yes"/>
      <point x="386" y="107.095"/>
      <point x="344.534" y="56"/>
      <point x="264" y="56" type="curve" smooth="yes"/>
      <point x="181.828" y="56"/>
      <point x="146" y="111.122"/>
      <point x="146" y="188" type="curve" smooth="yes"/>
      <point x="146" y="519" type="line"/>
      <point x="76" y="519" type="line"/>
      <point x="76" y="178" type="line" smooth="yes"/>
      <point x="76" y="65.963"/>
      <point x="135.578" y="-6"/>
      <point x="251" y="-6" type="curve" smooth="yes"/>
      <point x="318.952" y="-6"/>
      <point x="374.231" y="21.553"/>
      <point x="409" y="81" type="curve"/>
      <point x="439.376" y="19.998"/>
      <point x="491.304" y="-6"/>
      <point x="558" y="-6" type="curve" smooth="yes"/>
      <point x="612.631" y="-6"/>
      <point x="668.297" y="16"/>
      <point x="699" y="63" type="curve"/>
      <point x="699" y="0" type="line"/>
      <point x="767" y="0" type="line"/>
    </contour>
  </outline>
</glyph>
<glyph name="shchacyr.loclBGR" format="2">
  <advance width="823"/>
  <outline>
    <component base="shacyr.loclBGR"/>
    <contour>
      <point x="752.998" y="-170" type="line"/>
      <point x="822.998" y="-170" type="line"/>
      <point x="822.998" y="65.219" type="line"/>
      <point x="732.998" y="65.219" type="line"/>
      <point x="732.998" y="-0.015" type="line"/>
      <point x="752.998" y="-0.015" type="line"/>
    </contour>
  </outline>
</glyph>
<glyph name="softcyr.loclBGR" format="2">
  <advance width="555"/>
  <outline>
    <contour>
      <point x="77" y="182.129" type="line"/>
      <point x="147" y="182.129" type="line"/>
      <point x="147" y="519" type="line"/>
      <point x="77" y="519" type="line"/>
    </contour>
    <contour>
      <point x="77" y="182.129" type="line"/>
      <point x="77" y="71.235"/>
      <point x="150.752" y="-6"/>
      <point x="266.237" y="-6" type="curve" smooth="yes"/>
      <point x="405.256" y="-6"/>
      <point x="479" y="79.99"/>
      <point x="479" y="195.253" type="curve" smooth="yes"/>
      <point x="479" y="316.793"/>
      <point x="397.354" y="387"/>
      <point x="281.024" y="387" type="curve" smooth="yes"/>
      <point x="216.996" y="387"/>
      <point x="171.326" y="371.667"/>
      <point x="127" y="341" type="curve"/>
      <point x="127" y="265.446" type="line"/>
      <point x="170.933" y="299.528"/>
      <point x="215.688" y="322"/>
      <point x="279.071" y="322" type="curve" smooth="yes"/>
      <point x="350.356" y="322"/>
      <point x="400" y="267.4"/>
      <point x="400" y="189" type="curve" smooth="yes"/>
      <point x="400" y="110.952"/>
      <point x="355.846" y="56"/>
      <point x="271.783" y="56" type="curve" smooth="yes"/>
      <point x="193.603" y="56"/>
      <point x="147" y="107.212"/>
      <point x="147" y="182.129" type="curve"/>
    </contour>
  </outline>
</glyph>
<glyph name="three.dnom" format="2">
  <advance width="326"/>
  <outline>
    <contour>
      <point x="40.021" y="115" type="line"/>
      <point x="40.021" y="110.563" type="line" smooth="yes"/>
      <point x="40.021" y="34.284"/>
      <point x="80.912" y="-6"/>
      <point x="160" y="-6" type="curve" smooth="yes"/>
      <point x="231.513" y="-6"/>
      <point x="283.846" y="41.054"/>
      <point x="283.846" y="114" type="curve" smooth="yes"/>
      <point x="283.846" y="126.999" type="line" smooth="yes"/>
      <point x="283.846" y="169.561"/>
      <point x="268.166" y="206.846"/>
      <point x="225" y="226" type="curve"/>
      <point x="258.184" y="242.596"/>
      <point x="277.828" y="277.342"/>
      <point x="277.828" y="314" type="curve" smooth="yes"/>
      <point x="277.828" y="325.813" type="line" smooth="yes"/>
      <point x="277.828" y="394.452"/>
      <point x="233.311" y="434"/>
      <point x="160" y="434" type="curve" smooth="yes"/>
      <point x="92.973" y="434"/>
      <point x="42" y="395.209"/>
      <point x="42" y="325" type="curve" smooth="yes"/>
      <point x="42" y="313" type="line"/>
      <point x="104.04" y="313" type="line"/>
      <point x="104.04" y="318.155" type="line" smooth="yes"/>
      <point x="104.04" y="352.775"/>
      <point x="117.975" y="377"/>
      <point x="158" y="377" type="curve" smooth="yes"/>
      <point x="192.812" y="377"/>
      <point x="209.856" y="350.262"/>
      <point x="209.856" y="318" type="curve" smooth="yes"/>
      <point x="209.856" y="307.323" type="line" smooth="yes"/>
      <point x="209.856" y="261.58"/>
      <point x="186.681" y="250.078"/>
      <point x="144.005" y="250.078" type="curve" smooth="yes"/>
      <point x="133" y="250.078" type="line"/>
      <point x="133" y="192.928" type="line"/>
      <point x="142.719" y="192.928" type="line" smooth="yes"/>
      <point x="185.652" y="192.928"/>
      <point x="216.91" y="179.872"/>
      <point x="216.91" y="127" type="curve" smooth="yes"/>
      <point x="216.91" y="117.288" type="line" smooth="yes"/>
      <point x="216.91" y="80.349"/>
      <point x="204.497" y="50"/>
      <point x="159" y="50" type="curve" smooth="yes"/>
      <point x="118.389" y="50"/>
      <point x="101.045" y="73.653"/>
      <point x="101.045" y="109.934" type="curve" smooth="yes"/>
      <point x="101.045" y="115" type="line"/>
    </contour>
  </outline>
</glyph>
<glyph name="three.tlf" format="2">
  <advance width="524"/>
  <outline>
    <contour>
      <point x="70.01" y="175" type="line"/>
      <point x="70.01" y="170.972" type="line" smooth="yes"/>
      <point x="70.01" y="54.531"/>
      <point x="136.33" y="-10"/>
      <point x="256" y="-10" type="curve" smooth="yes"/>
      <point x="372.839" y="-10"/>
      <point x="446.924" y="64.891"/>
      <point x="446.924" y="183" type="curve" smooth="yes"/>
      <point x="446.924" y="196.512" type="line" smooth="yes"/>
      <point x="446.924" y="291.145"/>
      <point x="413.75" y="349.485"/>
      <point x="346" y="374" type="curve"/>
      <point x="405.691" y="400.552"/>
      <point x="434.971" y="453.532"/>
      <point x="434.971" y="534.984" type="curve" smooth="yes"/>
      <point x="434.971" y="542" type="line" smooth="yes"/>
      <point x="434.971" y="648.651"/>
      <point x="365.462" y="717"/>
      <point x="257" y="717" type="curve" smooth="yes"/>
      <point x="146.45" y="717"/>
      <point x="79" y="652.581"/>
      <point x="79" y="547" type="curve" smooth="yes"/>
      <point x="79" y="528" type="line"/>
      <point x="150.023" y="528" type="line"/>
      <point x="150.023" y="534.372" type="line" smooth="yes"/>
      <point x="150.023" y="611.058"/>
      <point x="185.378" y="650"/>
      <point x="255" y="650" type="curve" smooth="yes"/>
      <point x="319.724" y="650"/>
      <point x="360.901" y="609.695"/>
      <point x="360.901" y="546.342" type="curve" smooth="yes"/>
      <point x="360.901" y="538" type="line" smooth="yes"/>
      <point x="360.901" y="445.928"/>
      <point x="324.324" y="400"/>
      <point x="251" y="400" type="curve" smooth="yes"/>
      <point x="215" y="400" type="line"/>
      <point x="215" y="333" type="line"/>
      <point x="252" y="333" type="line" smooth="yes"/>
      <point x="325.118" y="333"/>
      <point x="372.945" y="282.778"/>
      <point x="372.945" y="206" type="curve" smooth="yes"/>
      <point x="372.945" y="196.091" type="line" smooth="yes"/>
      <point x="372.945" y="102.825"/>
      <point x="334.191" y="56"/>
      <point x="257" y="56" type="curve" smooth="yes"/>
      <point x="183.376" y="56"/>
      <point x="145.015" y="95.111"/>
      <point x="145.015" y="170.175" type="curve" smooth="yes"/>
      <point x="145.015" y="175" type="line"/>
    </contour>
  </outline>
</glyph>
<glyph name="two.osf" format="2">
  <advance width="479"/>
  <outline>
    <contour>
      <point x="60" y="0" type="line"/>
      <point x="419" y="0" type="line"/>
      <point x="419" y="67" type="line"/>
      <point x="173" y="67" type="line"/>
      <point x="365" y="249" type="line" smooth="yes"/>
      <point x="400.89" y="283.021"/>
      <point x="418.967" y="318.822"/>
      <point x="418.967" y="363.867" type="curve" smooth="yes"/>
      <point x="418.967" y="369" type="line" smooth="yes"/>
      <point x="418.967" y="457.672"/>
      <point x="339.202" y="529"/>
      <point x="240" y="529" type="curve" smooth="yes"/>
      <point x="140.142" y="529"/>
      <point x="67.764" y="474.021"/>
      <point x="63.431" y="394.878" type="curve" smooth="yes"/>
      <point x="63" y="387" type="line"/>
      <point x="138" y="387" type="line"/>
      <point x="138.198" y="394.518" type="line" smooth="yes"/>
      <point x="139.253" y="434.539"/>
      <point x="179.866" y="462"/>
      <point x="238" y="462" type="curve" smooth="yes"/>
      <point x="297.869" y="462"/>
      <point x="342.972" y="420.738"/>
      <point x="342.972" y="366" type="curve" smooth="yes"/>
      <point x="342.972" y="363.097" type="line" smooth="yes"/>
      <point x="342.972" y="336.357"/>
      <point x="326.526" y="308.608"/>
      <point x="298" y="282" type="curve" smooth="yes"/>
      <point x="60" y="60" type="line"/>
    </contour>
  </outline>
</glyph>
<glyph name="two.sups" format="2">
  <advance width="328"/>
  <outline>
    <contour>
      <point x="46" y="440" type="line"/>
      <point x="286" y="440" type="line"/>
      <point x="286" y="500" type="line"/>
      <point x="135" y="500" type="line"/>
      <point x="245" y="651" type="line" smooth="yes"/>
      <point x="268.219" y="682.874"/>
      <point x="284.968" y="711.001"/>
      <point x="284.968" y="752" type="curve" smooth="yes"/>
      <point x="284.968" y="757.062" type="line" smooth="yes"/>
      <point x="284.968" y="829.851"/>
      <point x="241.058" y="874"/>
      <point x="165" y="874" type="curve" smooth="yes"/>
      <point x="93.544" y="874"/>
      <point x="43" y="833.041"/>
      <point x="43" y="759" type="curve" smooth="yes"/>
      <point x="43" y="744" type="line"/>
      <point x="111.046" y="744" type="line"/>
      <point x="111.046" y="751.662" type="line" smooth="yes"/>
      <point x="111.046" y="785.994"/>
      <point x="119.846" y="817"/>
      <point x="163" y="817" type="curve" smooth="yes"/>
      <point x="196.398" y="817"/>
      <point x="213.963" y="792.632"/>
      <point x="213.963" y="761" type="curve" smooth="yes"/>
      <point x="213.963" y="755.117" type="line" smooth="yes"/>
      <point x="213.963" y="725.95"/>
      <point x="206.298" y="710.87"/>
      <point x="188" y="686" type="curve" smooth="yes"/>
      <point x="46" y="493" type="line"/>
    </contour>
  </outline>
</glyph>
<glyph name="uni030A0301" format="2">
  <anchor x="0" y="572" name="_t.ring"/>
  <outline>
    <contour>
      <point x="0" y="572" type="curve" smooth="yes"/>
      <point x="53.738" y="572"/>
      <point x="93" y="611.685"/>
      <point x="93" y="666" type="curve" smooth="yes"/>
      <point x="93" y="720.315"/>
      <point x="53.738" y="760"/>
      <point x="0" y="760" type="curve" smooth="yes"/>
      <point x="-53.626" y="760"/>
      <point x="-93" y="720.203"/>
      <point x="-93" y="666" type="curve" smooth="yes"/>
      <point x="-93" y="611.797"/>
      <point x="-53.626" y="572"/>
    </contour>
    <contour>
      <point x="0" y="611" type="curve" smooth="yes"/>
      <point x="-29.791" y="611"/>
      <point x="-53" y="635.084"/>
      <point x="-53" y="666" type="curve" smooth="yes"/>
      <point x="-53" y="696.973"/>
      <point x="-29.846" y="721"/>
      <point x="0" y="721" type="curve" smooth="yes"/>
      <point x="29.846" y="721"/>
      <point x="53" y="696.973"/>
      <point x="53" y="666" type="curve" smooth="yes"/>
      <point x="53" y="635.084"/>
      <point x="29.791" y="611"/>
    </contour>
    <contour>
      <point x="-49.156" y="779.196" type="line"/>
      <point x="15.844" y="779.196" type="line"/>
      <point x="115.906" y="879" type="line"/>
      <point x="29.906" y="879" type="line"/>
    </contour>
  </outline>
</glyph>
<glyph name="zero.dnom" format="2">
  <advance width="333"/>
  <outline>
    <contour>
      <point x="42" y="145" type="line" smooth="yes"/>
      <point x="42" y="43.896"/>
      <point x="82.974" y="-6"/>
      <point x="166" y="-6" type="curve" smooth="yes"/>
      <point x="250.11" y="-6"/>
      <point x="291" y="43.395"/>
      <point x="291" y="145" type="curve" smooth="yes"/>
      <point x="291" y="288" type="line" smooth="yes"/>
      <point x="291" y="387.297"/>
      <point x="251.015" y="434"/>
      <point x="166" y="434" type="curve" smooth="yes"/>
      <point x="84.349" y="434"/>
      <point x="42" y="384.137"/>
      <point x="42" y="288" type="curve" smooth="yes"/>
    </contour>
    <contour>
      <point x="166" y="53" type="curve" smooth="yes"/>
      <point x="126.126" y="53"/>
      <point x="112" y="75.235"/>
      <point x="112" y="138" type="curve" smooth="yes"/>
      <point x="112" y="292" type="line" smooth="yes"/>
      <point x="112" y="352.881"/>
      <point x="125.908" y="374"/>
      <point x="166" y="374" type="curve" smooth="yes"/>
      <point x="205.332" y="374"/>
      <point x="220" y="351.727"/>
      <point x="220" y="292" type="curve" smooth="yes"/>
      <point x="220" y="138" type="line" smooth="yes"/>
      <point x="220" y="75.812"/>
      <point x="205.508" y="53"/>
    </contour>
  </outline>
</glyph>
<glyph name="zero.osf" format="2">
  <advance width="504"/>
  <outline>
    <contour>
      <point x="68" y="216" type="line" smooth="yes"/>
      <point x="68" y="66.016"/>
      <point x="129.889" y="-10"/>
      <point x="252" y="-10" type="curve" smooth="yes"/>
      <point x="374.974" y="-10"/>
      <point x="437" y="65.772"/>
      <point x="437" y="216" type="curve" smooth="yes"/>
      <point x="437" y="307" type="line" smooth="yes"/>
      <point x="437" y="454.542"/>
      <point x="374.952" y="529"/>
      <point x="252" y="529" type="curve" smooth="yes"/>
      <point x="129.908" y="529"/>
      <point x="68" y="454.306"/>
      <point x="68" y="307" type="curve" smooth="yes"/>
    </contour>
    <contour>
      <point x="142" y="180" type="curve" smooth="yes"/>
      <point x="142" y="338" type="line" smooth="yes"/>
      <point x="142" y="416.523"/>
      <point x="181.776" y="461"/>
      <point x="252" y="461" type="curve" smooth="yes"/>
      <point x="322.224" y="461"/>
      <point x="362" y="416.523"/>
      <point x="362" y="338" type="curve" smooth="yes"/>
      <point x="362" y="180" type="line" smooth="yes"/>
      <point x="362" y="101.477"/>
      <point x="322.224" y="57"/>
      <point x="252" y="57" type="curve" smooth="yes"/>
      <point x="181.776" y="57"/>
      <point x="142" y="101.477"/>
    </contour>
  </outline>
</glyph>
<glyph name="zero.sups" format="2">
  <advance width="333"/>
  <outline>
    <contour>
      <point x="42" y="578" type="line" smooth="yes"/>
      <point x="42" y="476.896"/>
      <point x="82.974" y="427"/>
      <point x="166" y="427" type="curve" smooth="yes"/>
      <point x="250.11" y="427"/>
      <point x="291" y="476.395"/>
      <point x="291" y="578" type="curve" smooth="yes"/>
      <point x="291" y="721" type="line" smooth="yes"/>
      <point x="291" y="820.297"/>
      <point x="251.015" y="867"/>
      <point x="166" y="867" type="curve" smooth="yes"/>
      <point x="84.349" y="867"/>
      <point x="42" y="817.137"/>
      <point x="42" y="721" type="curve" smooth="yes"/>
    </contour>
    <contour>
      <point x="166" y="486" type="curve" smooth="yes"/>
      <point x="126.126" y="486"/>
      <point x="112" y="508.235"/>
      <point x="112" y="571" type="curve" smooth="yes"/>
      <point x="112" y="725" type="line" smooth="yes"/>
      <point x="112" y="785.881"/>
      <point x="125.908" y="807"/>
      <point x="166" y="807" type="curve" smooth="yes"/>
      <point x="205.332" y="807"/>
      <point x="220" y="784.727"/>
      <point x="220" y="725" type="curve" smooth="yes"/>
      <point x="220" y="571" type="line" smooth="yes"/>
      <point x="220" y="508.812"/>
      <point x="205.508" y="486"/>
    </contour>
  </outline>
</glyph>
<glyph name="zhecyr.loclBGR" format="2">
  <advance width="777"/>
  <outline>
    <contour>
      <point x="354" y="0" type="line"/>
      <point x="423" y="0" type="line"/>
      <point x="423" y="707" type="line"/>
      <point x="354" y="707" type="line"/>
    </contour>
    <contour>
      <point x="472" y="261" type="line"/>
      <point x="547" y="261" type="line"/>
      <point x="734" y="519" type="line"/>
      <point x="650" y="519" type="line"/>
    </contour>
    <contour>
      <point x="678" y="0" type="line"/>
      <point x="763" y="0" type="line"/>
      <point x="545" y="306" type="line"/>
      <point x="502" y="248" type="line"/>
    </contour>
    <contour>
      <point x="403" y="240" type="line"/>
      <point x="538" y="240" type="line"/>
      <point x="538" y="305" type="line"/>
      <point x="403" y="305" type="line"/>
    </contour>
    <contour>
      <point x="230" y="261" type="line"/>
      <point x="305" y="261" type="line"/>
      <point x="127" y="519" type="line"/>
      <point x="43" y="519" type="line"/>
    </contour>
    <contour>
      <point x="14" y="0" type="line"/>
      <point x="99" y="0" type="line"/>
      <point x="275" y="248" type="line"/>
      <point x="232" y="306" type="line"/>
    </contour>
    <contour>
      <point x="239" y="240" type="line"/>
      <point x="374" y="240" type="line"/>
      <point x="374" y="305" type="line"/>
      <point x="239" y="305" type="line"/>
    </contour>
  </outline>
</glyph>
